<?xml version="1.0" encoding="utf-8"?>
<!-- Generator: Adobe Illustrator 22.0.1, SVG Export Plug-In . SVG Version: 6.00 Build 0)  -->
<svg version="1.1" id="Layer_1" xmlns="http://www.w3.org/2000/svg" xmlns:xlink="http://www.w3.org/1999/xlink" x="0px" y="0px"
	 viewBox="0 0 600 600" style="enable-background:new 0 0 600 600;" xml:space="preserve">
<style type="text/css">
	.st0{fill:#662D91;}
	.st1{fill:#4F2B7A;}
	.st2{fill:#603913;}
	.st3{fill:#9B6540;}
	.st4{fill:#855431;}
	.st5{fill:#3B2363;}
	.st6{fill:#482A14;}
	.st7{fill:#FFFFFF;}
	.st8{fill:none;stroke:#603913;stroke-width:4;stroke-linecap:round;stroke-linejoin:round;stroke-miterlimit:10;}
</style>
<g>
	<path class="st0" d="M265.1,407.8v0.2l17.5,24.4l17.5,24.4l17.5-24.4l17.5-24.4v-0.2c3.4,0.5,6.8,1,10.2,1.6l-16.4,22.9l-28.7,40
		l-28.7-40l-16.4-22.9C258.3,408.8,261.6,408.3,265.1,407.8z"/>
	<path class="st1" d="M520.2,599.7v1.2H79.8v-1.2c0-35.7,10.9-69.1,29.9-97.8c7.3-11.1,15.8-21.4,25.4-31c5.8-5.8,12-11.3,18.5-16.4
		c13.7-10.8,29-20.1,45.5-27.6c17.4-7.9,36-13.8,55.7-17.4l16.4,22.9l28.7,40l28.7-40l16.4-22.9c24.4,4.5,47.2,12.5,67.9,23.4
		c6.4,3.4,12.6,7.1,18.6,11c13.6,9,26,19.3,37,30.8c9.7,10.2,18.3,21.3,25.5,33.1C510.7,535.1,520.2,566.4,520.2,599.7z"/>
	<path class="st2" d="M511.3,472.4c0,14.4-6.7,27.1-17.2,35.4c-7.2-11.8-15.8-22.9-25.5-33.1c-10.9-11.5-23.3-21.8-37-30.8
		c-6-3.9-12.2-7.6-18.6-11c-20.7-10.9-43.5-19-67.9-23.4c-3.4-0.6-6.7-1.2-10.2-1.6v-42.1c31.5-8.4,58.9-27.9,78.4-54.4
		c-1-3.2-1.5-6.5-1.5-10c0-12.4,6.6-23.2,16.5-29.2c-9.9-6-16.5-16.8-16.5-29.2c0-11.9,6.1-22.4,15.4-28.5
		c-9.3-6.1-15.4-16.6-15.4-28.5c0-10,3.4-0.1,3.4-13.4c0-4.9,1-9.6,3-13.9c-13.1-4.8-22.4-17.3-22.4-32c0,0,0,0,0,0
		c-0.3,0-0.6,0-0.9,0c-13.5,0-25.2-7.9-30.7-19.3c-5.5,3.9-12.2,6.1-19.4,6.1c-9,0-17.1-3.5-23.2-9.1c-5.2,3.2-11.3,5-17.8,5
		c-8.5,0-16.2-3.1-22.2-8.3c-6.2,7.5-15.7,12.3-26.2,12.3c-7.2,0-13.9-2.3-19.4-6.1c-5.5,11.4-17.2,19.3-30.7,19.3
		c-0.3,0-0.6,0-0.9,0c0,0,0,0,0,0c0,14.7-13.4,28.4-24.5,34c6.9,6.2,11.2,15.2,11.2,25.2c0,11.9-6.1,22.4-15.4,28.5
		c9.3,6.1,15.4,16.6,15.4,28.5c0,11.2-5.5,21.2-13.9,27.4c8.4,6.2,13.9,16.2,13.9,27.4c0,5.3-1.2,10.2-3.3,14.7
		c19.4,25.9,46.5,45,77.5,53.3v42.1c-3.4,0.5-6.8,1-10.2,1.6c-19.7,3.6-38.4,9.5-55.7,17.4c-16.5,7.5-31.8,16.8-45.5,27.6
		c-6.6,5.1-12.7,10.6-18.5,16.4c-9.6,9.5-18.1,19.9-25.4,31c-7.8-5.5-12.8-13.7-12.8-22.9c0-9.1,4.9-17.3,12.6-22.7
		c-7.8-8.3-12.6-19.1-12.6-31c0-18.1,1.5-33.8,17.8-41.8c-8.7-6-15-14.7-15-24.5c0-13.4,7.8-25,19-30.6c-11.3-5.5-19-17.1-19-30.6
		c0-11.3,5.5-21.2,13.9-27.4c-8.4-6.2-13.9-16.2-13.9-27.4c0-11.9,6.1-22.4,15.4-28.5c-9.3-6.1-15.4-16.6-15.4-28.5
		c0-13.3,7.6-24.8,18.7-30.4c-6.9-6.2-11.2-15.2-11.2-25.2c0-14.7,9.3-27.3,22.4-32c-1.9-4.2-3-8.9-3-13.9c0-18.8,24.8-34,43.6-34
		c0.3,0,0.6,0,0.9,0c0,0,0,0,0,0c0-18.8,15.2-34,34-34c7.2,0,13.9,2.2,19.4,6.1c5.5-11.4,17.2-19.3,30.7-19.3
		c8.5,0,16.2,3.1,22.2,8.3c6.3-7.5,15.7-12.3,26.2-12.3c9,0,17.1,3.5,23.2,9.1c5.2-3.2,11.3-5,17.8-5c13.5,0,25.2,7.9,30.7,19.3
		c5.5-3.9,12.2-6.1,19.4-6.1c18.8,0,34,15.2,34,34c0,0,0,0,0,0c0.3,0,0.6,0,0.9,0c18.8,0,42.2,15.2,42.2,34c0,4.9,3,9.6,1.1,13.9
		c13.1,4.8,22.4,17.3,22.4,32c0,10-4.3,19-11.2,25.2c11.1,5.6,18.7,17.1,18.7,30.4c0,11.9-0.7,22.4-10,28.5
		c9.3,6.1,15.4,16.6,15.4,28.5c0,12.4-6.6,23.2-16.5,29.2c9.9,6,16.5,16.8,16.5,29.2c0,13.4-7.8,25-19.1,30.6
		c11.3,5.5,19.1,17.1,19.1,30.6c0,8.9-4.1,15.3-10.4,19.6c17.3,7.4,12.5,50.6,12.5,50.6c-2,5.7-4.1,10.9-6.5,15.6
		C508.6,455.2,511.3,463.5,511.3,472.4z"/>
	<path class="st3" d="M334.9,365.7V408l-17.5,24.4L300,456.8l-17.5-24.4L265.1,408v-42.3c11.2,3,22.9,4.6,34.9,4.6
		C312.1,370.3,323.8,368.7,334.9,365.7z"/>
	<path class="st3" d="M411.8,301.3c0,3.5,0.5,6.8,1.5,10c-10.7,14.6-23.8,27-38.6,36.7c-12.2,7.9-25.6,14-39.8,17.8
		c-11.2,3-22.9,4.6-34.9,4.6c-12.1,0-23.8-1.6-34.9-4.6c-14.2-3.8-27.6-9.8-39.8-17.7c-14.4-9.4-27.2-21.5-37.8-35.5
		c2.1-4.4,3.3-9.4,3.3-14.7c0-11.3-5.5-21.2-13.9-27.4c8.4-6.2,13.9-16.2,13.9-27.4c0-11.9-6.1-22.4-15.4-28.5
		c9.3-6.1,15.4-16.6,15.4-28.5c0-10-4.3-19-11.2-25.2c11.1-5.6,24.5-19.3,24.5-34c0,0,0,0,0,0c0.3,0,0.6,0,0.9,0
		c13.5,0,25.2-7.9,30.7-19.3c5.5,3.8,12.2,6.1,19.4,6.1c10.5,0,20-4.8,26.2-12.3c6,5.1,13.7,8.3,22.2,8.3c6.6,0,12.7-1.8,17.8-5
		c6.1,5.7,14.2,9.1,23.2,9.1c7.2,0,13.9-2.2,19.4-6.1c5.5,11.4,17.2,19.3,30.7,19.3c0.3,0,0.6,0,0.9,0c0,0,0,0,0,0
		c0,14.7,9.3,27.2,22.4,32c-1.9,4.2-3,8.9-3,13.9c0,13.3-3.4,3.4-3.4,13.4c0,11.9,6.1,22.4,15.4,28.5c-9.3,6.1-15.4,16.6-15.4,28.5
		c0,12.4,6.6,23.2,16.5,29.2C418.5,278.1,411.8,288.9,411.8,301.3z"/>
	<path class="st4" d="M334.9,365.7v8.2c-10.7,3.6-22.5,5.5-34.9,5.5c-12.4,0-24.2-2-34.9-5.5v-8.2c11.2,3,22.9,4.6,34.9,4.6
		C312.1,370.3,323.8,368.7,334.9,365.7z"/>
	<path class="st5" d="M120.9,500.9c7.4-11.2,16-21.7,25.7-31.3c5.9-5.8,12.1-11.4,18.7-16.6c13.9-10.9,29.3-20.3,46-27.9
		c13.9-6.3,28.7-11.4,44.1-15l-0.5-0.6c-19.7,3.6-38.4,9.5-55.7,17.4c-16.5,7.5-31.8,16.8-45.5,27.6c-6.6,5.1-12.7,10.6-18.5,16.4
		c-9.6,9.5-18.1,19.9-25.4,31c-19,28.7-29.9,62.1-29.9,97.8v1.2h10.9v-1.2C90.7,563.6,101.7,529.9,120.9,500.9z"/>
	<g>
		<path class="st4" d="M182.1,220.2c0-4.1,0.2-8.1,0.5-12c-2.1,2.4-4.5,4.5-7.1,6.3C177.9,216.1,180.2,218,182.1,220.2z"/>
		<path class="st4" d="M188.7,174c5.1-17.5,12.9-33.6,23-48c-2.1,0.4-4.3,0.7-6.6,0.7c-0.3,0-0.6,0-0.9,0c0,0,0,0,0,0
			c0,14.7-13.4,28.4-24.5,34C183.7,164.4,186.8,168.9,188.7,174z"/>
		<path class="st4" d="M186.7,259.3c-2.4,4.4-5.7,8.1-9.7,11.1c8.4,6.2,13.9,16.2,13.9,27.4c0,5.3-1.2,10.2-3.3,14.7
			c10.5,14.1,23.3,26.1,37.8,35.5c12.2,7.9,25.5,14,39.8,17.7c4,1.1,8.1,2,12.3,2.7C232.7,349.7,198.5,309.2,186.7,259.3z"/>
	</g>
	<path class="st6" d="M445.3,53.8c0.3,0,0.6,0,0.9,0c-0.6-0.2-1.2-0.5-1.8-0.7c0,0.2,0,0.4,0,0.6c0,0,0,0,0,0
		C444.7,53.8,444.9,53.8,445.3,53.8z"/>
	<path class="st6" d="M112.3,482.3c0-9.1,4.9-17.3,12.6-22.7c-7.8-8.3-12.6-19.1-12.6-31c0-18.1,1.5-33.8,17.8-41.8
		c-8.7-6-15-14.7-15-24.5c0-13.4,7.8-25,19-30.6c-11.3-5.5-19-17.1-19-30.6c0-11.3,5.5-21.2,13.9-27.4c-8.4-6.2-13.9-16.2-13.9-27.4
		c0-11.9,6.1-22.4,15.4-28.5c-9.3-6.1-15.4-16.6-15.4-28.5c0-13.3,7.6-24.8,18.7-30.4c-6.9-6.2-11.2-15.2-11.2-25.2
		c0-14.7,9.3-27.3,22.4-32c-1.9-4.2-3-8.9-3-13.9c0-18.8,24.8-34,43.6-34c0.3,0,0.6,0,0.9,0c0,0,0,0,0,0c0-18.6,14.8-33.6,33.3-34
		c-4.4-2.1-9.4-3.3-14.7-3.3c-18.8,0-34,15.2-34,34c0,0,0,0,0,0c-0.3,0-0.6,0-0.9,0c-18.8,0-43.6,15.2-43.6,34c0,4.9,1.1,9.6,3,13.9
		c-13.1,4.8-22.4,17.3-22.4,32c0,10,4.3,19,11.2,25.2c-11.1,5.6-18.7,17.1-18.7,30.4c0,11.9,6.1,22.4,15.4,28.5
		c-9.3,6.1-15.4,16.6-15.4,28.5c0,11.2,5.5,21.2,13.9,27.4c-8.4,6.2-13.9,16.2-13.9,27.4c0,13.4,7.8,25,19,30.6
		c-11.3,5.5-19,17.1-19,30.6c0,9.9,6.3,18.5,15,24.5c-16.2,7.9-17.8,23.6-17.8,41.8c0,11.9,4.7,22.7,12.6,31
		c-7.7,5.5-12.6,13.6-12.6,22.7c0,9.2,5,17.4,12.8,22.9c1.8-2.7,3.6-5.3,5.5-7.9C113.4,490.4,112.3,486.4,112.3,482.3z"/>
</g>
<g>
	<g>
		<g>
			<circle cx="234.5" cy="209.8" r="23.1"/>
			<circle class="st7" cx="242.7" cy="202.4" r="8.2"/>
		</g>
		<g>
			<circle cx="369.2" cy="209.8" r="23.1"/>
			<circle class="st7" cx="377.4" cy="202.4" r="8.2"/>
		</g>
	</g>
	<g>
		<path class="st8" d="M344.9,170.2c18.2-13,43.4-8.8,56.4,9.3"/>
		<path class="st8" d="M258.9,171.6c-18.2-13-43.4-8.8-56.4,9.3"/>
	</g>
	<path class="st7" d="M343.7,286.7c-6.6,13-22.1,22.1-40.2,22.1c-18.1,0-33.6-9.1-40.2-22.1c11.9,6.8,25.6,10.6,40.2,10.6
		C318.2,297.4,331.9,293.5,343.7,286.7z"/>
</g>
</svg>
