<?xml version="1.0" encoding="utf-8"?>
<!-- Generator: Adobe Illustrator 22.0.1, SVG Export Plug-In . SVG Version: 6.00 Build 0)  -->
<svg version="1.1" id="Layer_2" xmlns="http://www.w3.org/2000/svg" xmlns:xlink="http://www.w3.org/1999/xlink" x="0px" y="0px"
	 viewBox="0 0 600 600" style="enable-background:new 0 0 600 600;" xml:space="preserve">
<style type="text/css">
	.st0{fill:#F5C699;}
	.st1{fill:#EAB283;}
	.st2{fill:#BB7B3C;}
	.st3{fill:#BE1E2D;}
	.st4{fill:#FFDE17;}
	.st5{fill:#A11D2D;}
	.st6{fill:#E9C61D;}
	.st7{fill:#A6672E;}
	.st8{fill:#FFFFFF;}
	.st9{fill:none;stroke:#BB7B3C;stroke-width:4;stroke-linecap:round;stroke-linejoin:round;stroke-miterlimit:10;}
</style>
<g>
	<g>
		<path class="st0" d="M525.2,271.6c0,21.1-16.2,38.3-36.9,40c-1.1,0.1-2.2,0.1-3.3,0.1c-1.7,0-3.4-0.1-5-0.3h0c1-2.7,2-5.5,3-8.3
			c2.8-8.4,5-17,6.5-25.8c2.6,3.2,5.1,5,7.4,5.1c6,0.4,10.7-11.3,14.1-41.5C519.7,248.4,525.2,259.4,525.2,271.6z"/>
		<path class="st0" d="M345.5,429v53.7c-0.7,0.2-1.4,0.3-2.1,0.5c-13.7,3.4-28.1,5.2-42.8,5.2c-14.5,0-28.5-1.7-42-5
			c-2.2-0.5-4.4-1.1-6.6-1.7v-54.3c15.9,4.3,32.6,6.6,49.9,6.6C316.9,434.1,331.5,432.3,345.5,429z"/>
		<path class="st1" d="M497.9,277.4c-0.3,1.7-0.6,3.4-1,5.1c-2.1,10-4.9,19.6-8.5,29c0,0.1,0,0.1-0.1,0.2c-1.1,0.1-2.2,0.1-3.3,0.1
			c-1.7,0-3.4-0.1-5-0.3c1-2.7,2-5.5,2.9-8.3c2.8-8.4,5-17,6.5-25.8c-6.4-7.7-13.9-23.2-22.4-41.6c-2.5-5.4-5.1-11-7.8-16.7
			c-1.2-2.5-2.4-5.1-3.6-7.7c-0.7-1.4-1.3-2.8-2-4.2c-0.7-1.4-1.4-2.8-2.1-4.2c-0.3-0.5-0.5-1.1-0.8-1.6c-0.4-0.9-0.9-1.7-1.3-2.6
			c-1.4-2.8-2.8-5.6-4.3-8.4c-0.7-1.3-1.3-2.5-2-3.8c-0.4-0.8-0.8-1.5-1.2-2.3c-0.3-0.5-0.6-1.1-0.9-1.6c-0.1-0.3-0.3-0.6-0.5-0.9
			c-0.7-1.3-1.4-2.5-2.1-3.8c-0.1-0.3-0.3-0.5-0.4-0.7c-0.5-0.9-1-1.8-1.5-2.6c-0.1-0.2-0.2-0.4-0.4-0.6c0,0,0,0,0-0.1
			c-0.4-0.7-0.8-1.4-1.3-2.2c0,0,0,0,0-0.1c-0.3-0.5-0.6-1.1-1-1.6c-0.4-0.7-0.8-1.4-1.3-2.1c-1.1-1.9-2.3-3.7-3.5-5.5
			c-0.1-0.2-0.3-0.4-0.4-0.6h0c-0.3-0.4-0.5-0.8-0.8-1.2c-0.2-0.2-0.3-0.5-0.5-0.7h0c-0.2-0.4-0.5-0.7-0.7-1.1
			c-0.8-1.2-1.6-2.4-2.4-3.5c-0.7-0.9-1.3-1.8-2-2.7c-0.2-0.2-0.3-0.4-0.5-0.7c-0.3-0.3-0.5-0.7-0.7-1h0c-0.2-0.2-0.3-0.4-0.5-0.7
			c-0.4-0.5-0.8-1.1-1.3-1.6c-0.3-0.3-0.5-0.7-0.8-1h0c-0.1-0.2-0.3-0.3-0.4-0.5c-0.4-0.5-0.8-1-1.3-1.5c-0.3-0.4-0.6-0.7-0.9-1.1h0
			c-0.1-0.1-0.2-0.3-0.3-0.4c-0.5-0.6-1-1.2-1.5-1.7c-0.3-0.3-0.5-0.6-0.8-0.9c-0.1-0.1-0.1-0.2-0.2-0.3c-0.4-0.4-0.7-0.8-1.1-1.2h0
			c-0.1-0.1-0.1-0.1-0.2-0.2c-0.4-0.4-0.8-0.8-1.2-1.2c-1.6-1.6-3.2-3-4.8-4.4c-0.2-0.2-0.4-0.4-0.7-0.5c0,0,0,0-0.1-0.1
			c-0.4-0.3-0.8-0.7-1.3-1c-0.9-0.7-1.8-1.4-2.8-2c-0.1-0.1-0.1-0.1-0.2-0.1c-0.4-0.3-0.9-0.6-1.3-0.9c0,0-0.1,0-0.1-0.1
			c-0.4-0.2-0.7-0.5-1.1-0.7c-0.1,0-0.1-0.1-0.2-0.1c-0.1,0-0.1-0.1-0.2-0.1c-0.3-0.2-0.7-0.4-1-0.6c-0.3-0.2-0.7-0.4-1-0.5
			c-0.2-0.1-0.4-0.2-0.6-0.3c-0.1,0-0.1-0.1-0.2-0.1c-0.3-0.1-0.6-0.3-0.9-0.4c-0.5-0.2-0.9-0.4-1.4-0.6c3.1-0.8,4.8-1.2,4.8-1.2
			c31.7,9,57.7,67.5,77.7,110.5C484.1,254.1,491.5,269.7,497.9,277.4z"/>
		<path class="st0" d="M114.9,280.5c2.1,10.5,5,20.6,8.7,30.3c-2.8,0.6-5.7,0.9-8.6,0.9c-22.2,0-40.1-18-40.1-40.1
			c0-14.3,7.5-26.9,18.8-34C99.4,273.4,107.4,283.1,114.9,280.5z"/>
		<path class="st2" d="M114.9,280.5c-7.5,2.6-15.5-7.1-21.3-42.9c-0.6-3.6-1.1-7.4-1.7-11.5C84.1,167.6,86.7,1.8,309,1.8
			c188.3,0,139.5,65.8,139.5,65.8s79.5-7.4,63.5,164.5c-0.3,3.1-0.6,6.1-0.9,8.9c-4.6,41.6-11.8,47.9-21.5,36.3
			c-6.4-7.7-13.9-23.2-22.4-41.6c-20.1-43-46-101.5-77.7-110.5c0,0-106.6,26.9-181.8,40.1c-30.5,5.4-62.1,25-70.8,72.3
			c0,0.1,0,0.2-0.1,0.3C134,252.2,124.8,277.1,114.9,280.5z"/>
		<path class="st0" d="M489.6,277.4c-1.6,8.8-3.8,17.5-6.5,25.8c-0.9,2.8-1.9,5.5-2.9,8.3c-12.4,32.5-33.5,60.7-60.4,81.9
			c-21.5,16.9-46.6,29.3-74.1,35.7c-1.6,0.4-3.2,0.7-4.8,1.1c-1.6,0.3-3.2,0.7-4.8,0.9c-1.2,0.2-2.4,0.4-3.6,0.6c0,0-0.1,0-0.1,0
			c-0.7,0.1-1.4,0.2-2.1,0.3c-1.3,0.2-2.7,0.4-4,0.5c-1.1,0.1-2.3,0.3-3.4,0.4c-1.4,0.1-2.7,0.3-4.1,0.4c-1.7,0.2-3.4,0.3-5.2,0.4
			c-1,0.1-2.1,0.1-3.1,0.2c-1.2,0.1-2.4,0.1-3.7,0.1c-0.2,0-0.3,0-0.5,0c-1.4,0-2.8,0-4.2,0c-17.2,0-34-2.3-49.9-6.6
			c-29.9-8.1-56.8-23.2-79-43.5c-21.8-20-38.9-44.9-49.5-73.1c-3.7-9.7-6.6-19.9-8.7-30.3c6.8-2.4,13.3-14.8,17.6-27.1
			c0.4-1.1,0.8-2.2,1.1-3.3c0.3-1.1,0.7-2.2,1-3.2c0.3-1.1,0.6-2.1,0.9-3.2c0.5-2,1-4,1.3-5.8l0.1-0.3c8.7-47.2,40.3-66.9,70.8-72.3
			c75.3-13.2,181.9-40.1,181.9-40.1c1.2,0.3,2.4,0.7,3.5,1.2h0c0.5,0.2,0.9,0.4,1.4,0.6c0.3,0.1,0.6,0.3,0.9,0.4
			c0.1,0,0.1,0.1,0.2,0.1c0.2,0.1,0.4,0.2,0.6,0.3c0.3,0.2,0.7,0.4,1,0.5c0.3,0.2,0.7,0.4,1,0.6c0.1,0,0.1,0.1,0.2,0.1
			c0.1,0,0.1,0.1,0.2,0.1c0.4,0.2,0.7,0.4,1.1,0.7c0,0,0.1,0.1,0.1,0.1c0.4,0.3,0.9,0.6,1.3,0.9c0.1,0,0.1,0.1,0.2,0.1
			c0.9,0.6,1.8,1.3,2.8,2c0.4,0.3,0.8,0.7,1.3,1h0c0.2,0.2,0.5,0.4,0.7,0.6c1.6,1.3,3.2,2.8,4.8,4.4c0.4,0.4,0.8,0.8,1.2,1.2
			c0.1,0.1,0.1,0.1,0.2,0.2c0.4,0.4,0.7,0.8,1.1,1.2c0.1,0.1,0.2,0.2,0.2,0.3c0.3,0.3,0.5,0.6,0.8,0.9c0.5,0.5,1,1.1,1.5,1.7
			c0.1,0.1,0.2,0.2,0.3,0.4c0.3,0.4,0.6,0.7,0.9,1.1c0.4,0.5,0.8,1,1.3,1.5c0.1,0.2,0.3,0.3,0.4,0.5c0.3,0.3,0.5,0.7,0.8,1
			c0.4,0.5,0.8,1.1,1.3,1.6c0.2,0.2,0.3,0.4,0.5,0.7c0.2,0.3,0.5,0.6,0.7,1c0.8,1.1,1.7,2.2,2.5,3.4c0.8,1.1,1.6,2.3,2.4,3.5
			c0.3,0.4,0.5,0.7,0.7,1.1c0.1,0.2,0.3,0.5,0.5,0.7c0.3,0.4,0.5,0.8,0.8,1.2c0.1,0.2,0.3,0.4,0.4,0.6c1.2,1.8,2.3,3.6,3.5,5.5
			c0,0,0.1,0.1,0.1,0.1c0.4,0.6,0.8,1.3,1.2,1.9c0.3,0.5,0.6,1.1,1,1.6c0.4,0.7,0.9,1.5,1.3,2.2c0,0,0,0.1,0,0.1
			c0.1,0.2,0.3,0.4,0.4,0.6c0.5,0.9,1,1.7,1.5,2.6c0.1,0.2,0.3,0.5,0.4,0.7c0.7,1.2,1.4,2.5,2.1,3.8c0.2,0.3,0.3,0.6,0.5,0.9
			c0.3,0.5,0.6,1.1,0.9,1.6c0.4,0.7,0.8,1.5,1.2,2.3c0.7,1.3,1.3,2.5,2,3.8c1.4,2.8,2.9,5.6,4.3,8.4c0.4,0.9,0.9,1.7,1.3,2.6
			c0.8,1.6,1.6,3.1,2.3,4.7c0.2,0.4,0.4,0.8,0.5,1.1c0.7,1.4,1.4,2.8,2,4.2c1.2,2.6,2.5,5.2,3.6,7.7c2.7,5.7,5.3,11.3,7.8,16.7
			C475.7,254.1,483.2,269.7,489.6,277.4z"/>
		<path class="st1" d="M345.5,429v6.7c-14.5,3.2-30.2,4.9-46.7,4.9c-16.5,0-32.3-1.7-46.7-4.9v-8.3c15.9,4.3,32.6,6.6,49.9,6.6
			C316.9,434.1,331.5,432.3,345.5,429z"/>
		<g>
			<path class="st3" d="M558.5,598.2H41.5c7.6-10.6,16.1-20.7,25.5-30.2c35.8-36.3,84.4-64,140.2-78.7h0c0.2,0.1,0.5,0.2,0.7,0.3
				c1.3,0.6,2.5,1.2,3.8,1.8h0c0.3,0.1,0.5,0.3,0.8,0.4c1.2,0.6,2.4,1.1,3.7,1.7c1.3,0.6,2.6,1.1,3.9,1.7c0.1,0,0.1,0.1,0.2,0.1
				c1.4,0.6,2.7,1.1,4.1,1.7c1.4,0.5,2.8,1.1,4.2,1.6c1.1,0.4,2.3,0.8,3.5,1.2c3.2,1.1,6.4,2.1,9.7,3.1c1.1,0.3,2.3,0.6,3.4,0.9
				c1.6,0.4,3.2,0.9,4.9,1.3c15.6,3.8,31.8,5.8,48.6,5.8c1.2,0,2.3,0,3.5,0c0.8,0,1.7,0,2.5-0.1c1,0,2-0.1,3-0.1
				c1,0,1.9-0.1,2.9-0.1h0.1c1.1-0.1,2.2-0.1,3.2-0.2c0.5,0,1.1-0.1,1.6-0.1c0.1,0,0.2,0,0.3,0c1-0.1,2.1-0.2,3.1-0.3
				c0.7-0.1,1.4-0.1,2.1-0.2c0.7-0.1,1.4-0.1,2.1-0.2c1.1-0.1,2.3-0.3,3.4-0.4c0.2,0,0.4,0,0.6-0.1c0.5-0.1,1.1-0.1,1.6-0.2
				c0.7-0.1,1.4-0.2,2.1-0.3c0.3,0,0.6-0.1,0.9-0.1c1.2-0.2,2.5-0.4,3.7-0.6c0,0,0.1,0,0.1,0c1.3-0.2,2.6-0.5,3.8-0.7
				c1.4-0.3,2.9-0.6,4.3-0.9c16.7-3.7,32.6-9.5,47.4-17c2.5,0.6,5,1.3,7.5,2c2.5,0.7,4.9,1.4,7.4,2.2
				C470.5,512.8,524.4,550.3,558.5,598.2z"/>
			<path class="st4" d="M298.7,484.8c14.8,0,29.1-1.8,42.8-5.2c0.7,0.1,1.4,0.2,2.1,0.3c16.3,1.9,32.1,4.9,47.4,8.9
				c-14.9,7.6-30.8,13.3-47.4,17c-14.4,3.2-29.5,5-44.9,5c-16.7,0-33-2-48.6-5.8c-15-3.6-29.4-9-42.9-15.7
				c13.9-3.7,28.2-6.5,42.9-8.5c2.2-0.3,4.4-0.6,6.6-0.8C270.2,483.1,284.2,484.8,298.7,484.8z"/>
			<g>
				<path class="st5" d="M322.4,510.7c15.4,0,30.4-1.7,44.9-5c13.4-3,26.3-7.3,38.6-12.8c-4.9-1.5-9.8-2.9-14.9-4.2
					c-14.9,7.6-30.8,13.3-47.4,17c-10.7,2.4-21.8,4-33,4.6C314.5,510.6,318.5,510.7,322.4,510.7z"/>
				<path class="st5" d="M216.3,493.4c-63.9,20-117.2,57.2-151,104.7H41.5c7.6-10.6,16.1-20.7,25.5-30.2
					c35.8-36.3,84.4-64,140.2-78.7h0c0.2,0.1,0.5,0.2,0.7,0.3c1.3,0.6,2.5,1.2,3.8,1.8h0C213.2,492.1,214.8,492.8,216.3,493.4z"/>
			</g>
			<path class="st6" d="M265.1,483.9c2.6-0.3,5.2-0.7,7.7-1c-5.5-0.8-10.8-1.8-16.1-3.1c-2.2,0.3-4.4,0.5-6.6,0.8
				c-14.7,2-29,4.9-42.9,8.5c3,1.5,6,2.9,9.1,4.3C232.1,489.4,248.4,486.2,265.1,483.9z"/>
		</g>
		<path class="st7" d="M485.2,84.4c-0.1,0.1-0.1,0.1-0.1,0.1s0.1,0,0.2,0C485.3,84.4,485.2,84.4,485.2,84.4z"/>
		<path class="st7" d="M103.2,267.5c-0.6-3.8-1.2-7.9-1.8-12.3C93.1,192.1,95.8,13.7,335,13.7c45.3,0,77.8,3.5,101,9
			C417.1,11.1,379.8,1.8,309,1.8C86.7,1.8,84.1,167.6,91.9,226.2c0.5,4.1,1.1,7.9,1.7,11.5c3.2,19.4,7,31.1,11,37.4
			C104.1,272.7,103.7,270.1,103.2,267.5z"/>
		<path class="st1" d="M79.6,278.4c0-14.2,5.6-27.2,14.6-36.7c-0.2-1.3-0.5-2.6-0.7-4c-11.3,7.1-18.8,19.7-18.8,34
			c0,8.7,2.8,16.8,7.5,23.3C80.6,289.8,79.6,284.2,79.6,278.4z"/>
		<path class="st1" d="M192.2,395.5c-23.7-21.7-42.3-48.9-53.9-79.5c-4-10.6-7.2-21.6-9.4-33c10.8-3.7,20.9-30.8,23.8-46.3
			c0-0.1,0.1-0.2,0.1-0.4c6.8-37.2,26.8-58.7,49.9-70c-28.9,6.6-57.6,26.6-65.8,71.3c0,0.1,0,0.2-0.1,0.3
			c-2.7,14.3-11.9,39.2-21.9,42.6c2.1,10.5,5,20.6,8.7,30.3c10.6,28.2,27.7,53.1,49.5,73.1c11.7,10.8,24.9,20.1,39,27.7
			C205.1,406.6,198.5,401.3,192.2,395.5z"/>
	</g>
	<g>
		<g>
			<g>
				<circle cx="212.1" cy="248.7" r="30.2"/>
				<circle class="st8" cx="222.9" cy="239.1" r="10.7"/>
			</g>
			<g>
				<circle cx="387.9" cy="248.7" r="30.2"/>
				<circle class="st8" cx="398.6" cy="239.1" r="10.7"/>
			</g>
		</g>
		<g>
			<path class="st9" d="M356.2,197.1c23.7-17,56.6-11.5,73.6,12.2"/>
			<path class="st9" d="M244,199c-23.7-17-56.6-11.5-73.6,12.2"/>
		</g>
		<path class="st8" d="M354.7,349c-8.6,16.9-28.9,28.8-52.5,28.8c-23.6,0-43.8-11.9-52.5-28.8c15.5,8.8,33.4,13.9,52.5,13.9
			C321.3,362.9,339.2,357.9,354.7,349z"/>
	</g>
</g>
</svg>
