<?xml version="1.0" encoding="utf-8"?>
<!-- Generator: Adobe Illustrator 22.0.1, SVG Export Plug-In . SVG Version: 6.00 Build 0)  -->
<svg version="1.1" id="Layer_1" xmlns="http://www.w3.org/2000/svg" xmlns:xlink="http://www.w3.org/1999/xlink" x="0px" y="0px"
	 viewBox="0 0 600 600" style="enable-background:new 0 0 600 600;" xml:space="preserve">
<style type="text/css">
	.st0{fill:#9B6540;}
	.st1{fill:#771C1C;}
	.st2{fill:#B79291;}
	.st3{fill:#311211;}
	.st4{fill:#603913;}
	.st5{fill:#875938;}
	.st6{fill:#5E1615;}
	.st7{fill:#A48181;}
	.st8{fill:#240F0F;}
	.st9{fill:#4F2A11;}
	.st10{fill:#23130D;}
	.st11{fill:#ED1C24;}
	.st12{fill:#FFFFFF;}
	.st13{fill:none;stroke:#603913;stroke-width:4;stroke-linecap:round;stroke-linejoin:round;stroke-miterlimit:10;}
</style>
<g>
	<circle class="st0" cx="443" cy="224.6" r="24.3"/>
	<circle class="st0" cx="158" cy="226.2" r="24.3"/>
	<g>
		<path class="st1" d="M216.1,396c13.7,6,28.1,10.6,43.2,13.6c13.2,2.6,26.8,4,40.8,4c14,0,27.6-1.4,40.8-4c15-3,29.5-7.5,43.1-13.5
			c13.6,3.9,26.7,8.7,39.2,14.3c-10.1,39.9-15.4,81.8-15.4,124.8c0,21.6,1.4,43,4,63.9H185.1c2.6-20.9,4-42.3,4-63.9
			c0-42.6-5.2-83.9-15.1-123.5C187.3,405.5,201.4,400.2,216.1,396z"/>
		<path class="st2" d="M259.2,390.5c13.1,2.9,26.8,4.4,40.8,4.4s27.6-1.5,40.8-4.4c2.9-0.6,5.8-1.3,8.7-2.1
			c11.8,1.9,23.3,4.5,34.5,7.6c-13.7,6-28.1,10.6-43.1,13.5c-13.2,2.6-26.8,4-40.8,4c-13.9,0-27.6-1.4-40.8-4
			c-15-3-29.5-7.5-43.2-13.6c11.2-3.2,22.7-5.8,34.5-7.6C253.4,389.2,256.3,389.9,259.2,390.5z"/>
		<path class="st3" d="M437.5,417.4c70.7,37.1,117.6,102,117.6,175.9c0,1.9,0,3.9-0.1,5.8H427.5c-2.7-20.9-4.1-42.2-4.1-63.9
			C423.4,494.6,428.3,455.1,437.5,417.4z"/>
		<path class="st3" d="M173.4,535.2c0,21.7-1.4,43-4.1,63.9H45c-0.1-1.9-0.1-3.9-0.1-5.8c0-72.8,45.6-137,114.6-174.3
			C168.6,456.2,173.4,495.1,173.4,535.2z"/>
		<path class="st2" d="M407.7,535.2c0-43.1,5.4-84.9,15.4-124.8c4.9,2.2,9.7,4.6,14.4,7c-9.3,37.7-14.2,77.2-14.2,117.8
			c0,21.7,1.4,43,4.1,63.9h-15.8C409,578.2,407.7,556.8,407.7,535.2z"/>
		<path class="st2" d="M189,535.2c0,21.6-1.4,43-4,63.9h-15.8c2.7-20.9,4.1-42.2,4.1-63.9c0-40-4.8-79-13.8-116.2
			c4.7-2.5,9.5-4.9,14.4-7.2C183.8,451.2,189,492.6,189,535.2z"/>
	</g>
	<path class="st0" d="M340.8,352.9v37.6c-13.1,2.9-26.8,4.4-40.8,4.4s-27.6-1.5-40.8-4.4V353c13,4,26.6,6.1,40.7,6.1
		C314.1,359.1,327.8,356.9,340.8,352.9z"/>
	<path class="st0" d="M447.7,224.6c-1.8,8.1-4.3,16.3-7.3,24.3c-16.4,43.9-49.7,84.6-91.2,101c-2.8,1.1-5.6,2.1-8.5,3
		c-13,4-26.7,6.2-40.8,6.2c-14.1,0-27.8-2.1-40.7-6.1c-2.8-0.9-5.6-1.8-8.4-3c-49.1-19.4-86.9-72.9-98.6-125.4
		c1.2-0.1,2.5-0.6,3.9-1.5c1.1-0.7,3.2-1.1,3.5-2.9c16-103.6,46.7-121.1,82.3-121.2c17.9,0,37.1,4.3,56.3,4.3c0.1,0,0.3,0,0.8,0
		c0.3,0,0.6,0,1,0c2.3-0.1,6.5-0.3,10.1-0.4c16.4-1.2,32.3-4.2,47.3-4.6c34.6-0.8,63.6,12.7,79.1,97.2c1.4,7.5,2.7,15.6,3.8,24.2
		v0.1c0,0.1,0,0.3,0.1,0.4l0,0c0.3,0.8,1,1.2,1.7,1.6l0,0c0.6,0.5,1.1,0.9,1.7,1.2C445.2,224.1,446.5,224.5,447.7,224.6z"/>
	<path class="st4" d="M459.8,182.3C459.7,182.3,459.7,182.3,459.8,182.3c-0.4,14.6-1.7,29-5.2,36.7c-1.7,3.7-3.9,5.8-6.8,5.6h0
		c0-0.1,0.1-0.3,0.1-0.4c-1.2,0-2.6-0.5-4.1-1.5c-0.4-0.3-1-0.5-1.6-0.8l0,0c-0.6-0.5-1.2-1-1.7-1.6c0-0.1-0.1-0.3-0.1-0.4v-0.1
		c-0.2-1.6-0.4-3.2-0.7-4.8c-0.2-1.6-0.4-3.1-0.7-4.7c-0.2-1.5-0.5-3-0.7-4.5c-0.4-2.5-0.8-5-1.2-7.4c-0.2-1-0.3-1.9-0.5-2.8
		c-15.5-84.5-44.5-98-79.1-97.2c-15,0.4-30.9,3.4-47.3,4.6c-3.5,0.1-7.7,0.3-10.1,0.4c-0.4,0-0.7,0-1,0c-0.4,0-0.7,0-0.8,0
		c-19.2,0-38.4-4.4-56.3-4.3c-35.6,0.1-66.3,17.6-82.3,121.2c-1.2,1.2-2.4,2.2-3.5,2.9c-1.4,0.9-2.7,1.4-3.9,1.5
		c-8.9,0.6-11.4-20.8-12-42.3c0,0,0-0.1,0-0.1c-0.3-10.2-0.2-20.5-0.2-28.4c0-0.4,0-42.1,5.5-69.4c0.8-4.1,1.8-7.9,2.9-11.2
		c9.4-28.3,39.5-49.5,55.7-55.9C245.9,0.6,270.2,0.7,300,1l0,0.3V1c29.7-0.4,54-0.4,95.9,16.3c16.2,6.5,46.3,27.6,55.7,55.9
		c1.1,3.3,2,7,2.8,11.1c5.5,27.3,5.5,69.1,5.5,69.4C460,161.8,460.1,172,459.8,182.3z"/>
	<path class="st5" d="M340.8,352.9v2.5c-11.5,6.4-25.6,10.1-40.8,10.1c-15.2,0-29.3-3.7-40.8-10.1V353c13,4,26.6,6.1,40.7,6.1
		C314.1,359.1,327.8,356.9,340.8,352.9z"/>
	<path class="st6" d="M216.1,396c0.9,0.4,1.9,0.8,2.8,1.2c-15.3,5.4-29.9,12.4-43.5,20.7c-0.5-2.1-1-4.2-1.5-6.2
		C187.3,405.5,201.4,400.2,216.1,396z"/>
	<path class="st7" d="M250.5,388.4c0.1,0,0.1,0,0.2,0c-10.9,2.2-21.5,5.2-31.8,8.8h0c-0.9-0.4-1.9-0.8-2.8-1.2
		C227.2,392.9,238.8,390.3,250.5,388.4z"/>
	<path class="st8" d="M161.5,427.2C106.5,466.4,70.5,528.7,69,599.1H45c-0.1-1.9-0.1-3.9-0.1-5.8c0-72.8,45.6-137,114.6-174.3
		C160.2,421.7,160.9,424.4,161.5,427.2z"/>
	<path class="st7" d="M175.4,417.9c-4.8,2.9-9.4,6-14,9.3c-0.6-2.8-1.2-5.5-1.9-8.3c4.7-2.5,9.5-4.9,14.4-7.2
		C174.4,413.8,175,415.9,175.4,417.9z"/>
	<path class="st5" d="M226.1,336.8c-36.8-25-64.2-68.9-73.9-112.2c1.2-0.1,2.5-0.6,3.9-1.5c1.1-0.7,3.2-1.1,3.5-2.9
		c11.7-75.8,31.3-105.5,54.9-116c-24.2,27.5-39.3,66.8-39.3,110.4C175.2,264.9,195.2,309.4,226.1,336.8z"/>
	<path class="st9" d="M147.6,186.5C147.6,186.4,147.6,186.4,147.6,186.5c-0.3-10.3-0.2-20.6-0.2-28.5c0-0.4,0-42.1,5.5-69.4
		c0.8-4.1,1.8-7.9,2.9-11.2c9.4-28.3,39.5-49.5,55.7-55.9c41.9-16.8,66.2-16.7,95.9-16.3l0,0.3V5.1c29.7-0.4,54-0.4,95.9,16.3
		c1.7,0.7,3.5,1.5,5.4,2.5c-4.7-2.9-9.1-5.1-12.7-6.6C354,0.6,329.7,0.7,300,1v0.3l0-0.3c-29.7-0.4-54-0.4-95.9,16.3
		c-16.2,6.5-46.3,27.6-55.7,55.9c-1.1,3.3-2,7.1-2.9,11.2c-5.5,27.3-5.5,69-5.5,69.4c0,8-0.1,18.2,0.2,28.4c0,0,0,0,0,0.1
		c0.6,21.5,3.1,42.8,12,42.3c0.4,0,0.8-0.1,1.2-0.2C149.4,217.2,148,201.9,147.6,186.5z"/>
	<path class="st10" d="M447.7,224.5c0,0.1,0,0.1,0,0.2h0c0,0,0.1,0,0.1,0C447.8,224.6,447.8,224.5,447.7,224.5z"/>
	<path class="st11" d="M440.3,219.9c0,0.2,0.1,0.3,0.1,0.4l0,0C440.3,220.2,440.3,220,440.3,219.9z"/>
	<path class="st5" d="M454.9,223.3c0,10.9-5.8,20.4-14.4,25.7c3-8,5.5-16.2,7.3-24.3h0c2.9,0.2,5.1-1.9,6.8-5.6
		C454.7,220.4,454.9,221.8,454.9,223.3z"/>
</g>
<g>
	<g>
		<g>
			<circle cx="226.9" cy="196.4" r="25.1"/>
			<circle class="st12" cx="235.9" cy="188.4" r="8.9"/>
		</g>
		<g>
			<circle cx="372.9" cy="196.4" r="25.1"/>
			<circle class="st12" cx="381.8" cy="188.4" r="8.9"/>
		</g>
	</g>
	<g>
		<path class="st13" d="M346.6,153.5c19.7-14.1,47-9.6,61.1,10.1"/>
		<path class="st13" d="M253.4,155c-19.7-14.1-47-9.6-61.1,10.1"/>
	</g>
	<path class="st12" d="M345.3,279.7c-7.2,14-24,23.9-43.6,23.9c-19.6,0-36.4-9.8-43.6-23.9c12.8,7.3,27.7,11.5,43.6,11.5
		C317.6,291.2,332.5,287,345.3,279.7z"/>
</g>
</svg>
