<?xml version="1.0" encoding="utf-8"?>
<!-- Generator: Adobe Illustrator 22.0.1, SVG Export Plug-In . SVG Version: 6.00 Build 0)  -->
<svg version="1.1" id="Layer_1" xmlns="http://www.w3.org/2000/svg" xmlns:xlink="http://www.w3.org/1999/xlink" x="0px" y="0px"
	 viewBox="0 0 600 600" style="enable-background:new 0 0 600 600;" xml:space="preserve">
<style type="text/css">
	.st0{fill:#6B79B6;}
	.st1{fill:#FFE1B2;}
	.st2{fill:#FFE1B2;stroke:#603913;stroke-width:4;stroke-miterlimit:10;}
	.st3{fill:#50609A;}
	.st4{fill:none;stroke:#603913;stroke-width:4;stroke-miterlimit:10;}
	.st5{fill:#E2C092;}
	.st6{fill:#F79458;}
	.st7{fill:#E0773B;}
	.st8{fill:#939DCF;}
	.st9{fill:#7F8AB5;}
	.st10{fill:#FFFFFF;}
	.st11{fill:#3C2415;}
</style>
<g>
	<path class="st0" d="M547.1,600H52.9c12.2-64.2,66.4-118.1,140.8-144.7c0,0,34.1,40,64.7,51.2c30.6,11.3,44.6-51.2,44.6-51.2
		s10.7,40,27.9,47.5c6.7,2.9,16.2,1.9,27-3.2c0,0,0,0,0,0c15-7,32.4-21.8,48.3-44.3c2.9,1,5.8,2.1,8.7,3.3
		C484.9,486.2,535.4,538.3,547.1,600z"/>
	<path class="st1" d="M135,258.1c1.4,8.8,3.4,17.3,6.1,25.6c-3.9,1.7-8.3,2.6-12.8,2.6c-17.9,0-32.4-14.5-32.4-32.4
		c0-11.3,5.8-21.3,14.6-27.1c5,38.1,14.6,41.4,23.7,32.1C134.5,258.6,134.8,258.4,135,258.1z"/>
	<path class="st1" d="M503.5,253.9c0,17.9-14.5,32.4-32.4,32.4c-0.6,0-1.3,0-1.9-0.1c-2-0.1-3.9-0.4-5.8-0.9
		c3.7-11.2,6.4-22.9,7.7-35c0.2,0,0.4,0,0.6,0c0.7-0.1,1.5-0.4,2.2-0.8c4.1-2.3,8-9.7,11.5-24.8
		C496.1,230.1,503.5,241.1,503.5,253.9z"/>
	<path class="st1" d="M331.8,245.4c0,10.6,8.7,19.3,19.3,19.3h41.9c10.6,0,19.3-8.7,19.3-19.3v-22.6c0-10.6-8.7-19.3-19.3-19.3
		h-41.9c-10.6,0-19.3,8.7-19.3,19.3V245.4z M217.2,124.2c41.5-8,169.5,23.2,191.6,34.8c12,6.3,35.2,22.8,40.8,53.3
		c0.8,4.1,2.1,9.3,4,14.5c2.9,8.4,7,16.8,11.5,21c2,1.8,4,2.8,6,2.7c-1.3,12.1-4,23.8-7.7,35c-17.2,51.3-58.2,91.6-109.9,107.8
		c-16.1,5.1-33.2,7.8-51,7.8c-19.7,0-38.5-3.3-56.1-9.5c-49.8-17.4-89-57.5-105.3-107.8c-2.7-8.3-4.7-16.8-6.1-25.6
		c5.8-6.4,11.3-17.7,15.2-28.1c2.6-6.9,4.5-13.4,5.3-17.8c7.7-41.7,23.9-67.3,53-85C210.7,125.9,213.6,124.9,217.2,124.2z
		 M193.7,245.4c0,10.6,8.7,19.3,19.3,19.3H255c10.6,0,19.3-8.7,19.3-19.3v-22.6c0-10.6-8.7-19.3-19.3-19.3h-41.9
		c-10.6,0-19.3,8.7-19.3,19.3V245.4z"/>
	<path class="st2" d="M274.3,222.9v22.6c0,10.6-8.7,19.3-19.3,19.3h-41.9c-10.6,0-19.3-8.7-19.3-19.3v-22.6
		c0-10.6,8.7-19.3,19.3-19.3H255C265.6,203.5,274.3,212.2,274.3,222.9z"/>
	<path class="st2" d="M412.4,222.9v22.6c0,10.6-8.7,19.3-19.3,19.3h-41.9c-10.6,0-19.3-8.7-19.3-19.3v-22.6
		c0-10.6,8.7-19.3,19.3-19.3h41.9C403.7,203.5,412.4,212.2,412.4,222.9z"/>
	<path class="st3" d="M269.6,494c18.4,6.8,30.8-13.1,37.8-30c-4.9-11-7.6-21.2-7.6-21.2s-9.6,42.8-30.2,51.2
		C269.5,494,269.6,494,269.6,494z"/>
	<line class="st4" x1="150.6" y1="207.9" x2="193.7" y2="226.8"/>
	<line class="st4" x1="455.5" y1="207.9" x2="412.4" y2="226.8"/>
	<line class="st4" x1="274.3" y1="229.8" x2="331.8" y2="229.8"/>
	<path class="st5" d="M252.6,392.9c-49.8-17.4-89-57.5-105.3-107.8c-2.7-8.3-4.7-16.8-6.1-25.6c5.8-6.4,11.3-17.7,15.2-28.1
		c2.6-6.9,4.5-13.4,5.3-17.8c7.7-41.7,23.9-67.3,53-85c2.2-1.3,5.1-2.3,8.7-3c22.8-4.4,71.6,3,114.7,12.5
		c-44.5-10.1-96.9-18.5-120.8-13.9c-3.6,0.7-6.6,1.7-8.7,3c-29.1,17.7-45.3,43.3-53,85c-0.8,4.4-2.7,10.9-5.3,17.8
		c-3.9,10.4-9.4,21.7-15.2,28.1c1.4,8.8,3.4,17.3,6.1,25.6c16.3,50.3,55.5,90.4,105.3,107.8c7.1,2.5,14.5,4.5,22,6
		C263.1,396.2,257.8,394.7,252.6,392.9z"/>
	<path class="st5" d="M473.9,241c-0.7,0.5-1.5,0.8-2.2,1c-0.2,0-0.4,0.1-0.6,0.1c-1.3,14.9-4,29.4-7.7,43.2c1.9,0.6,3.8,0.9,5.8,1.1
		c0.1-0.4,0.2-0.7,0.3-1.1c3.7-13.8,6.4-28.2,7.7-43.2C476.1,242.1,475,241.7,473.9,241z"/>
	<path class="st6" d="M134.2,258.9c-9.1,9.3-18.6,6-23.7-32.1c-0.6-4.6-1.2-9.8-1.6-15.5c-7.3-88.4,35-130.4,33.4-159.9
		c0-0.5-0.1-1.1-0.1-1.6c-3.2-29-39.1-39.8-39.1-39.8c10.4-5.9,45-10.5,70.5,1.2c6.6,3,12.5,7.1,17.3,12.5
		c9.7,11,39.5-26.5,111.6-26.5c176,0,193.5,153.6,186.7,204.8c-1.2,9-2.5,16.5-3.9,22.7c-4.1,17.8-8.9,24.9-13.7,25.6
		c-0.2,0-0.4,0-0.6,0c-2,0.1-4-1-6-2.7c-4.5-4.2-8.6-12.7-11.5-21c-1.8-5.2-3.2-10.3-4-14.5c-5.6-30.4-28.8-47-40.8-53.3
		c-22.1-11.5-150-42.8-191.6-34.8c-3.6,0.7-6.6,1.7-8.7,3c-29.1,17.7-45.3,43.3-53,85c-0.8,4.4-2.7,10.9-5.3,17.8
		c-3.9,10.4-9.4,21.7-15.2,28.1C134.8,258.4,134.5,258.6,134.2,258.9z"/>
	<path class="st7" d="M120.2,225.5c-0.6-4.6-1.2-9.8-1.6-15.5c-7.3-88.4,35-130.4,33.4-159.9c0-0.5-0.1-1.1-0.1-1.6
		c-3.2-29-39.1-39.8-39.1-39.8c2.8-1.6,7.4-3.1,13.1-4.2c-10.1,1-18.5,3.2-22.7,5.6c0,0,35.9,10.8,39.1,39.8c0,0.5,0.1,1,0.1,1.6
		c1.6,29.5-40.7,71.5-33.4,159.9c0.5,5.7,1,10.9,1.6,15.5c4.7,35.3,13.3,40.7,21.7,33.9C127.4,257.5,123.1,247,120.2,225.5z"/>
	<path class="st7" d="M474.8,246.3c-4.5-4.2-8.6-12.7-11.5-21c-1.8-5.2-3.2-10.3-4-14.5c-5.6-30.4-28.8-47-40.8-53.3
		c-22.1-11.5-150-42.8-191.6-34.8c-0.6,0.1-1.1,0.2-1.7,0.4c47.9-3.5,162.8,24.9,183.6,35.8c12,6.3,35.2,22.8,40.8,53.3
		c0.8,4.1,2.1,9.3,4,14.5c2.9,8.4,7,16.8,11.5,21c2,1.8,4,2.8,6,2.7c0.2,0,0.4,0,0.6,0c1.5-0.2,3.1-1.1,4.6-2.8
		C475.8,247.2,475.3,246.8,474.8,246.3z"/>
	<path class="st3" d="M415,458.6c-19.8,25.3-41.3,39-57,41c0,0,0,0,0,0c-4,0.5-7.6,0.3-10.8-0.7c16.1-3.8,37.3-18.6,56.4-44.5
		c0.9,0.3,1.7,0.6,2.6,0.9C409.2,456.3,412.1,457.4,415,458.6z"/>
	<path class="st3" d="M197.4,459.4c-2.4-2.6-3.7-4.1-3.7-4.1C119.3,481.9,65.1,535.8,52.9,600h14.5
		C79,538.9,128.6,487.3,197.4,459.4z"/>
	<path class="st8" d="M246.5,445.1c17,5.9,35,9.1,53.5,9.1c1,0,2,0,3,0l0,1.1c0,0-14,62.5-44.6,51.2c-30.6-11.3-64.7-51.2-64.7-51.2
		c14.7-5.3,30.2-9.5,46.3-12.5C242.1,443.6,244.3,444.4,246.5,445.1z"/>
	<g>
		<path class="st1" d="M353.5,393.2v51.9c-16.1,5.6-33,8.7-50.5,9.1c-1,0-2,0-3,0c-18.6,0-36.5-3.2-53.5-9.1v-53.6
			c17.6,6.2,36.4,9.5,56.1,9.5C320.3,401,337.4,398.3,353.5,393.2z"/>
		<path class="st5" d="M302.6,401c-19.7,0-38.5-3.3-56.1-9.5v5.3c16.7,5.5,34.5,8.4,53,8.4c17.8,0,34.9-2.7,51-7.8
			c1-0.3,2-0.7,3.1-1v-3.2C337.4,398.3,320.3,401,302.6,401z"/>
	</g>
	<path class="st8" d="M406.3,455.3c-15.8,22.5-33.3,37.3-48.3,44.3c0,0,0,0,0,0c-10.8,5.1-20.3,6.1-27,3.2
		c-17.2-7.5-27.9-47.5-27.9-47.5l0-1.1c17.5-0.3,34.4-3.4,50.5-9.1c2.2-0.7,4.3-1.5,6.4-2.4h0c15.1,2.9,29.8,6.8,43.7,11.6
		C404.5,454.7,405.4,455,406.3,455.3z"/>
	<path class="st9" d="M247.5,445.5c-0.3-0.1-0.7-0.2-1-0.3c-2.2-0.7-4.3-1.5-6.4-2.4c-16.1,3-31.6,7.2-46.3,12.5c0,0,1.3,1.5,3.6,4
		C213.3,453.6,230.1,449,247.5,445.5z"/>
	<path class="st10" d="M356.9,324.2c-8.8,17.3-29.6,29.5-53.7,29.5c-24.1,0-44.8-12.1-53.7-29.4c15.8,9,34.2,14.2,53.7,14.2
		C322.8,338.4,341.1,333.2,356.9,324.2z"/>
	<g>
		<circle class="st11" cx="375.2" cy="234.4" r="11.2"/>
		<circle class="st10" cx="379.2" cy="230.8" r="4"/>
	</g>
	<g>
		<circle class="st11" cx="234" cy="234.4" r="11.2"/>
		<circle class="st10" cx="238" cy="230.8" r="4"/>
	</g>
</g>
</svg>
