<?xml version="1.0" encoding="utf-8"?>
<!-- Generator: Adobe Illustrator 22.0.1, SVG Export Plug-In . SVG Version: 6.00 Build 0)  -->
<svg version="1.1" id="Layer_1" xmlns="http://www.w3.org/2000/svg" xmlns:xlink="http://www.w3.org/1999/xlink" x="0px" y="0px"
	 viewBox="0 0 600 600" style="enable-background:new 0 0 600 600;" xml:space="preserve">
<style type="text/css">
	.st0{fill:#BB2026;}
	.st1{fill:#3F2469;}
	.st2{fill:#FFE1B2;}
	.st3{fill:none;stroke:#000000;stroke-width:3;stroke-linecap:round;stroke-linejoin:round;stroke-miterlimit:10;}
	.st4{fill:#FFFFFF;}
	.st5{fill:#EECD9F;}
	.st6{fill:#1E144C;}
	.st7{fill:none;stroke:#ED1C24;stroke-width:3;stroke-miterlimit:10;}
	.st8{fill:#ED1C24;}
</style>
<circle class="st0" cx="302.9" cy="30.4" r="21.6"/>
<path class="st1" d="M517,596.4H83.6c1.2-72.2,67.1-133,156.8-152c0.3-7.1,3.4-12.6,12.5-12.6c3.6,0,8.8,2.6,14.6,6.8
	c2.3,1.6,4.6,3.5,7,5.5c8.1,6.9,16.7,15.9,23.6,24.5c0.7,0.9,1.4,1.8,2.1,2.7c0.4,0.5,0.8,1,1.1,1.5c7-9.4,16.3-19.7,25.2-27.6
	c0.9-0.8,1.8-1.6,2.7-2.3c2.2-1.8,4.3-3.5,6.4-5c5.4-3.8,10.1-6.2,13.5-6.2c9.2,0,12.3,5.7,12.5,12.9
	C450.6,464.1,515.8,524.6,517,596.4z"/>
<path d="M163.5,206.7c-24.2,24.2,0,137.1,0,137.1v13.5c-0.5-0.5-0.9-1-1.3-1.4c-31.2-33.6-50.2-78.6-50.2-128
	c0-6.2,0.3-12.3,0.9-18.4c0-0.2,0-0.4,0.1-0.6c0.1-0.8,0.2-1.7,0.3-2.5c0-0.4,0.1-0.7,0.1-1c0.1-0.7,0.2-1.5,0.3-2.2
	c0.1-0.6,0.2-1.1,0.2-1.7c0-0.3,0.1-0.6,0.1-0.9c0-0.3,0.1-0.5,0.1-0.8c0.1-0.8,0.2-1.6,0.4-2.3c0.1-0.8,0.3-1.7,0.4-2.5
	c0.1-0.3,0.1-0.6,0.2-0.9c0-0.1,0-0.2,0.1-0.4c0.1-0.4,0.1-0.8,0.2-1.1c0-0.1,0-0.1,0-0.2c0-0.2,0.1-0.4,0.1-0.6
	c0.1-0.3,0.1-0.6,0.2-0.9c0.1-0.6,0.2-1.2,0.4-1.8v0c0.2-0.8,0.3-1.5,0.5-2.2c0.2-0.9,0.4-1.9,0.6-2.8c0.1-0.5,0.3-1.1,0.4-1.7
	c0.1-0.4,0.2-0.7,0.3-1.1c0.2-0.9,0.5-1.8,0.7-2.8c0.5-1.8,1-3.6,1.6-5.5c0.3-0.9,0.5-1.8,0.8-2.7c0.3-0.9,0.6-1.8,0.9-2.7
	c0.5-1.5,1-3.1,1.6-4.6c0.6-1.6,1.2-3.2,1.9-4.8c0.5-1.2,1-2.5,1.5-3.7c0.3-0.7,0.6-1.3,0.9-2c0.1-0.3,0.3-0.6,0.4-1
	c0.3-0.7,0.6-1.4,1-2.2c0.3-0.6,0.5-1.1,0.8-1.7c0.2-0.4,0.4-0.8,0.5-1.2c0.3-0.7,0.7-1.4,1.1-2.2c0.2-0.5,0.5-0.9,0.7-1.4
	c0.6-1.2,1.2-2.4,1.8-3.5c0.1-0.1,0.1-0.2,0.2-0.3c0.4-0.8,0.9-1.6,1.3-2.4c0.4-0.7,0.8-1.4,1.2-2.1c0.1-0.1,0.1-0.2,0.2-0.3
	c0.4-0.7,0.8-1.4,1.2-2.1c0.1-0.1,0.1-0.2,0.2-0.3c2.2-3.7,4.6-7.4,7-11c0.1-0.1,0.2-0.3,0.3-0.4c0.6-0.8,1.2-1.7,1.8-2.5
	c0.5-0.8,1.1-1.5,1.6-2.2c0.3-0.5,0.7-0.9,1-1.4c0.3-0.5,0.7-1,1.1-1.4c0.4-0.5,0.8-1.1,1.2-1.6c0.6-0.7,1.1-1.4,1.7-2.1
	c0.5-0.7,1.1-1.3,1.6-1.9c0.1-0.1,0.1-0.1,0.2-0.2c0.6-0.7,1.1-1.4,1.7-2c0.6-0.7,1.2-1.3,1.7-2c0.9-1,1.7-1.9,2.6-2.9
	c0.3-0.3,0.6-0.6,0.9-0.9c0.1-0.1,0.2-0.3,0.4-0.4c0.6-0.6,1.2-1.3,1.8-1.9c0,0,0-0.1,0.1-0.1c0.6-0.6,1.3-1.3,1.9-1.9
	c0.3-0.3,0.6-0.6,1-1c0.3-0.3,0.6-0.6,0.9-0.9c0.7-0.7,1.4-1.3,2.1-2c1.1-1.1,2.2-2.1,3.4-3.2c0.9-0.8,1.8-1.6,2.7-2.4
	c0.2-0.2,0.4-0.4,0.6-0.5c1.2-1,2.4-2,3.6-3c1.3-1.1,2.6-2.1,3.9-3.1c0.9-0.7,1.8-1.4,2.7-2c0.7-0.5,1.4-1,2.1-1.6
	c0.8-0.5,1.5-1.1,2.2-1.6c0.5-0.4,1-0.7,1.6-1.1c0.2-0.2,0.4-0.3,0.7-0.5c2-1.4,4-2.7,6.1-4c0.3-0.2,0.6-0.4,0.9-0.6
	c0.3-0.2,0.6-0.4,0.9-0.5c0.2-0.2,0.5-0.3,0.7-0.4c0.2-0.2,0.5-0.3,0.8-0.5c0.8-0.5,1.6-1,2.4-1.4c27.7-16.1,59.9-25.3,94.3-25.3
	c34.1,0,66.1,9.1,93.8,25c18.4,10.6,34.9,24.2,48.7,40.1c2,2.3,3.9,4.6,5.8,7c2.8,3.5,5.5,7.2,8,11c0.6,0.9,1.3,1.9,1.9,2.8
	c1.2,1.9,2.4,3.8,3.6,5.8c0.6,1,1.2,2,1.7,2.9c1.5,2.6,2.9,5.2,4.3,7.9c0.8,1.6,1.6,3.1,2.3,4.7c0.8,1.6,1.5,3.2,2.2,4.8
	c0.5,1.2,1,2.4,1.6,3.6c0.1,0.2,0.2,0.4,0.3,0.7c0.2,0.4,0.3,0.8,0.5,1.2c0.4,0.9,0.7,1.8,1.1,2.8c0.1,0.1,0.1,0.3,0.2,0.4
	c0,0.1,0.1,0.1,0.1,0.2v0c0.3,0.7,0.5,1.4,0.8,2.1c0.1,0.1,0.1,0.3,0.2,0.4c0.3,0.8,0.6,1.7,0.9,2.5c0.3,0.9,0.6,1.9,1,2.8
	c0.6,1.9,1.2,3.8,1.8,5.7c0.3,0.9,0.5,1.7,0.8,2.6c0.5,1.7,0.9,3.4,1.4,5.2c0.3,1.4,0.7,2.8,1,4.2c0.3,1.4,0.6,2.8,0.9,4.2
	c0.4,1.9,0.7,3.8,1.1,5.7c0.1,0.5,0.2,1.1,0.3,1.7c0.1,0.8,0.3,1.5,0.4,2.3c0.2,1.1,0.3,2.1,0.5,3.2c0.1,0.3,0.1,0.5,0.1,0.8
	c0,0.2,0.1,0.5,0.1,0.7c0.1,1,0.2,1.9,0.3,2.9c0.1,0.8,0.2,1.5,0.2,2.2c0,0.1,0,0.1,0,0.1c0,0.2,0,0.3,0.1,0.5
	c0.1,0.5,0.1,1,0.1,1.5c0,0.4,0.1,0.8,0.1,1.2s0.1,0.8,0.1,1.2c0.1,0.6,0.1,1.2,0.1,1.8c0,0,0,0.1,0,0.1c0,0.1,0,0.2,0,0.3
	c0,0.5,0.1,1,0.1,1.5c0,0,0,0.1,0,0.1v0.1c0.1,1,0.1,2,0.1,3v0.1c0.1,1,0.1,2,0.1,3.1c0,0.4,0,0.7,0,1.1c0,1,0,1.9,0,2.9v1.3
	c0,0.4,0,0.9,0,1.3c0,1.7-0.1,3.4-0.1,5.1c0,0.9-0.1,1.7-0.1,2.6c0,0.9-0.1,1.7-0.2,2.5c-0.1,0.8-0.1,1.7-0.2,2.5
	c-0.1,0.9-0.1,1.7-0.2,2.5c-0.1,0.8-0.2,1.7-0.3,2.5c-0.2,1.7-0.4,3.3-0.6,5c-0.2,1.7-0.5,3.3-0.7,5c-0.1,0.8-0.3,1.6-0.4,2.5
	c-0.4,2.5-0.9,4.9-1.4,7.3c-0.2,0.7-0.3,1.3-0.4,2c-0.4,1.8-0.8,3.5-1.3,5.2c-0.4,1.6-0.8,3.2-1.3,4.7c-0.2,0.7-0.4,1.3-0.6,2
	c-0.7,2.5-1.5,4.9-2.4,7.4c-0.8,2.3-1.6,4.6-2.5,6.9c-0.3,0.8-0.6,1.5-0.9,2.2s-0.6,1.5-0.9,2.2c-0.3,0.8-0.6,1.5-1,2.2
	c-0.3,0.8-0.6,1.5-1,2.2c-2,4.4-4.1,8.7-6.4,13c-0.8,1.4-1.5,2.8-2.3,4.1c-0.1,0.1-0.2,0.3-0.2,0.4c-0.7,1.2-1.4,2.4-2.1,3.5
	c-0.1,0.2-0.2,0.4-0.3,0.6c-0.7,1.2-1.4,2.3-2.2,3.4c-0.1,0.2-0.3,0.4-0.4,0.7c-0.8,1.1-1.5,2.3-2.3,3.4c-0.1,0.2-0.2,0.3-0.3,0.5
	c-0.9,1.2-1.7,2.5-2.6,3.7c-0.8,1-1.5,2.1-2.3,3.1c-0.4,0.6-0.9,1.1-1.3,1.7c-1.5,1.9-3,3.8-4.5,5.6c-1.1,1.4-2.3,2.7-3.5,4
	c-0.8,0.9-1.6,1.8-2.5,2.7c-0.1,0.2-0.3,0.3-0.4,0.5c-0.4,0.5-0.9,1-1.3,1.4v-13.5c0,0,13.8-61,11.2-102.7c0-0.6-0.1-1.2-0.1-1.8
	c-0.1-1.2-0.2-2.3-0.3-3.5c-0.1-0.6-0.1-1.1-0.2-1.7c-0.1-1.1-0.3-2.2-0.4-3.3c-0.1-0.5-0.2-1.1-0.3-1.6c-0.3-1.8-0.7-3.6-1.1-5.3
	c-0.1-0.6-0.3-1.1-0.4-1.7c-0.1-0.5-0.3-1-0.4-1.5c-0.3-1.1-0.7-2.2-1.1-3.2c-0.1-0.4-0.3-0.7-0.4-1.1c-0.2-0.4-0.3-0.8-0.5-1.2
	c-0.5-1-1-2-1.5-2.9c-0.2-0.3-0.4-0.6-0.6-0.9c-0.3-0.6-0.7-1.1-1.1-1.6c-0.3-0.3-0.5-0.7-0.8-1c-0.1-0.1-0.1-0.1-0.1-0.2
	c-0.3-0.3-0.5-0.6-0.8-0.9c-0.4-0.4-0.7-0.7-1.1-1.1c-0.2-0.2-0.5-0.4-0.7-0.5c0,0-0.1-0.1-0.1-0.1c-0.2-0.1-0.4-0.2-0.7-0.3
	c-0.1,0-0.1-0.1-0.2-0.1c-0.3-0.1-0.6-0.2-0.9-0.3c-0.4-0.1-0.8-0.2-1.2-0.2c-0.3,0-0.5-0.1-0.8-0.1c-0.1,0-0.1,0-0.2,0
	c-0.3,0-0.7,0-1.1,0c-0.9,0-1.8,0.1-2.8,0.2c-1,0.1-2,0.2-3,0.4c-1.5,0.2-3.1,0.5-4.7,0.8c-0.5,0.1-1,0.2-1.6,0.3
	c-5.2,0.9-10.2,1.6-13.1,0c-4.7-2.6-11.4-18.2-11.4-18.2s0,0,0,0.1c-0.2,0.9-4.1,15.2-7.9,18.1h-68.2c-6.4-3.1-17.8-21.5-18.5-22.7
	c0,0,0-0.1,0-0.1s0,0,0,0.1c-0.7,1.1-12.3,19.1-18.5,22.7h-68.2c-4-2.6-7.7-17.2-7.9-18.1c0,0,0-0.1,0-0.1s-6.4,16.1-11.4,18.2
	c-2.5,1.1-6.4,0.7-10.7,0C175.9,205.4,167,203.1,163.5,206.7z"/>
<path class="st2" d="M183.7,206.7c4.2,0.7,8.2,1.1,10.7,0c4.9-2.1,11.4-18.2,11.4-18.2s0,0,0,0.1c0.2,0.9,3.9,15.5,7.9,18.1h68.2
	c6.1-3.6,17.7-21.5,18.5-22.7c0,0,0-0.1,0-0.1s0,0,0,0.1c0.7,1.2,12.1,19.6,18.5,22.7H387c3.8-2.9,7.7-17.2,7.9-18.1
	c0,0,0-0.1,0-0.1s6.7,15.6,11.4,18.2c2.9,1.6,7.9,0.9,13.1,0c0.5-0.1,1-0.2,1.6-0.3c1.6-0.3,3.1-0.6,4.7-0.8c1-0.2,2-0.3,3-0.4
	c1-0.1,1.9-0.2,2.8-0.2c0.4,0,0.8,0,1.1,0c0.1,0,0.1,0,0.2,0c0.3,0,0.5,0.1,0.8,0.1c0.4,0.1,0.9,0.1,1.2,0.2
	c0.3,0.1,0.6,0.2,0.9,0.3c0.1,0,0.1,0,0.2,0.1c0.3,0.1,0.5,0.2,0.7,0.3c0,0,0.1,0,0.1,0.1c0.3,0.1,0.5,0.3,0.7,0.5
	c0.4,0.3,0.8,0.7,1.1,1.1c0.3,0.3,0.5,0.6,0.8,0.9c0.1,0.1,0.1,0.1,0.1,0.2c0.3,0.3,0.5,0.6,0.8,1c0.4,0.5,0.8,1.1,1.1,1.6
	c0.2,0.3,0.4,0.6,0.6,0.9c0.5,0.9,1,1.9,1.5,2.9c0.2,0.4,0.3,0.8,0.5,1.2c0.1,0.3,0.3,0.7,0.4,1.1c0.4,1,0.7,2.1,1.1,3.2
	c0.2,0.5,0.3,1,0.4,1.5c0.2,0.5,0.3,1.1,0.4,1.7c0.4,1.7,0.8,3.5,1.1,5.3c0.1,0.5,0.2,1.1,0.3,1.6c0.2,1.1,0.3,2.2,0.4,3.3
	c0.1,0.6,0.1,1.1,0.2,1.7c0.1,1.1,0.2,2.3,0.3,3.5c0,0.6,0.1,1.2,0.1,1.8c2.6,41.7-11.2,102.7-11.2,102.7
	c-7.1,8.3-14.9,16-23.4,22.9c-9.8,8-20.4,15-31.7,20.8c-14.6,7.5-30.3,13-46.9,16.3c-11.3,2.2-23,3.4-34.9,3.4
	c-11.3,0-22.4-1.1-33.1-3.1c-17.6-3.3-34.2-9.1-49.6-17.1c-11-5.7-21.3-12.5-30.8-20.3c-8.5-6.9-16.3-14.6-23.4-23
	c0,0-24.2-112.8,0-137.1C167,203.1,175.9,205.4,183.7,206.7z"/>
<line class="st3" x1="339.4" y1="266.8" x2="398.2" y2="253.2"/>
<line class="st3" x1="201.8" y1="253.2" x2="260.6" y2="266.8"/>
<path class="st4" d="M352,331.6c-8.4,16.3-27.9,27.8-50.7,27.8c-22.8,0-42.3-11.5-50.7-27.8c14.9,8.5,32.3,13.4,50.7,13.4
	C319.7,345.1,337,340.2,352,331.6z"/>
<g>
	<path class="st5" d="M302.9,188c-1.4-2.1-2.3-3.7-2.5-4c0,0,0-0.1,0-0.1s0,0,0,0.1c-0.7,1.1-12.3,19.1-18.5,22.7h5.2
		C291.6,204.1,299,193.8,302.9,188z"/>
	<path class="st5" d="M424.7,206.7c0.5-0.1,1-0.2,1.6-0.3c1.6-0.3,3.1-0.6,4.7-0.8c0.9-0.1,1.9-0.3,2.8-0.4c-0.1,0-0.1,0-0.2,0
		c-0.3,0-0.5-0.1-0.8-0.1c-0.1,0-0.1,0-0.2,0c-0.3,0-0.7,0-1.1,0c-0.9,0-1.8,0.1-2.8,0.2c-1,0.1-2,0.2-3,0.4
		c-1.5,0.2-3.1,0.5-4.7,0.8c-0.5,0.1-1,0.2-1.6,0.3c-1.8,0.3-3.7,0.6-5.4,0.8C416.9,207.9,420.7,207.4,424.7,206.7z"/>
	<path class="st5" d="M398.2,195.2c-1.9-3.6-3.2-6.7-3.2-6.7s0,0,0,0.1c-0.2,0.9-4.1,15.2-7.9,18.1h5.2
		C394.5,205,396.6,199.7,398.2,195.2z"/>
	<path class="st5" d="M272.5,404.1c-17.6-3.3-34.2-9.1-49.6-17.1c-11-5.7-21.3-12.5-30.8-20.3c-8.5-6.9-16.3-14.6-23.4-23
		c0,0-24.2-112.8,0-137.1c1-1,2.3-1.5,4-1.7c-3.9-0.4-7.3-0.2-9.2,1.7c-24.2,24.2,0,137.1,0,137.1c7,8.4,14.9,16,23.4,23
		c9.5,7.8,19.8,14.6,30.8,20.3c15.4,8,32,13.8,49.6,17.1c10.7,2,21.8,3.1,33.1,3.1c0.9,0,1.7,0,2.5,0
		C292.5,407,282.4,406,272.5,404.1z"/>
	<path class="st5" d="M199.6,206.7c2.7-1.1,5.9-6.5,8.2-11.2c-1.2-3.5-1.9-6.6-2-7c0,0,0-0.1,0-0.1s-6.4,16.1-11.4,18.2
		c-0.5,0.2-1.2,0.4-1.8,0.5C195.3,207.4,197.8,207.4,199.6,206.7z"/>
</g>
<path class="st6" d="M247.5,449.1c0.3-7.1,3.4-12.6,12.5-12.6c2.4,0,5.5,1.2,9,3.2c-0.6-0.4-1.2-0.9-1.7-1.3
	c-5.8-4.2-11-6.8-14.6-6.8c-9.1,0-12.2,5.6-12.5,12.6c-89.7,19-155.6,79.8-156.8,152h7.6C95,526.1,159.8,467.7,247.5,449.1z"/>
<path d="M494.6,218.4H105.4c0.1-4.1,0.4-8.2,0.8-12.3c0-0.2,0-0.4,0.1-0.7c0.1-0.9,0.2-1.7,0.3-2.6c0-0.4,0.1-0.7,0.1-1.1
	c0.1-0.8,0.2-1.5,0.3-2.3c0.1-0.6,0.2-1.2,0.2-1.7c0-0.3,0.1-0.6,0.1-0.9c0-0.3,0.1-0.6,0.1-0.9c0.1-0.8,0.2-1.6,0.4-2.4
	c0.1-0.9,0.3-1.7,0.4-2.6c0-0.3,0.1-0.6,0.2-0.9c0-0.1,0-0.2,0.1-0.4c0.1-0.4,0.1-0.8,0.2-1.2c0-0.1,0-0.1,0-0.2
	c0-0.2,0.1-0.4,0.1-0.6c0.1-0.3,0.1-0.7,0.2-1c0.1-0.6,0.2-1.3,0.4-1.9v0c0.2-0.8,0.3-1.5,0.5-2.3c0.2-1,0.4-1.9,0.7-2.9
	c0.1-0.6,0.3-1.1,0.4-1.7c0.1-0.4,0.2-0.8,0.3-1.1c0.2-1,0.5-1.9,0.8-2.9c0.5-1.9,1-3.8,1.6-5.6c0.3-0.9,0.6-1.8,0.9-2.8
	c0.3-0.9,0.6-1.9,0.9-2.8c0.5-1.6,1.1-3.2,1.7-4.7c0.6-1.7,1.2-3.3,1.9-5c0.5-1.3,1-2.6,1.6-3.8c0.3-0.7,0.6-1.4,0.9-2.1
	c0.2-0.3,0.3-0.7,0.4-1c0.3-0.7,0.7-1.5,1-2.2c0.3-0.6,0.5-1.2,0.8-1.8c0.2-0.4,0.4-0.8,0.6-1.2c0.3-0.7,0.7-1.5,1.1-2.2
	c0.2-0.5,0.5-1,0.7-1.5c0.6-1.2,1.2-2.5,1.9-3.7c0.1-0.1,0.1-0.2,0.2-0.3c0.4-0.8,0.9-1.7,1.4-2.5c0.4-0.7,0.8-1.5,1.2-2.2
	c0-0.1,0.1-0.2,0.2-0.3c0.4-0.7,0.8-1.4,1.2-2.1c0.1-0.1,0.1-0.2,0.2-0.3c2.3-3.9,4.7-7.6,7.3-11.3c0.1-0.1,0.2-0.3,0.3-0.4
	c0.6-0.9,1.2-1.7,1.8-2.6c0.5-0.8,1.1-1.5,1.7-2.3c0.4-0.5,0.7-1,1.1-1.4c0.4-0.5,0.7-1,1.1-1.5c0.4-0.5,0.9-1.1,1.3-1.6
	c0.6-0.7,1.2-1.5,1.8-2.2c0.6-0.7,1.1-1.3,1.7-2c0-0.1,0.1-0.1,0.2-0.2c0.6-0.7,1.2-1.4,1.8-2.1c0.6-0.7,1.2-1.4,1.8-2.1
	c0.9-1,1.8-2,2.7-3c0.3-0.3,0.6-0.7,0.9-1c0.1-0.1,0.2-0.3,0.4-0.4c0.6-0.7,1.2-1.3,1.9-2c0,0,0-0.1,0.1-0.1c0.6-0.7,1.3-1.3,2-2
	c0.3-0.3,0.7-0.7,1-1c0.3-0.3,0.6-0.6,0.9-0.9c0.7-0.7,1.4-1.4,2.2-2.1c1.2-1.1,2.3-2.2,3.5-3.3c0.9-0.8,1.8-1.7,2.8-2.5
	c0.2-0.2,0.4-0.4,0.6-0.5c1.2-1.1,2.5-2.1,3.7-3.1c1.3-1.1,2.7-2.2,4-3.2c0.9-0.7,1.9-1.4,2.8-2.1c0.7-0.5,1.4-1.1,2.2-1.6
	c0.8-0.6,1.5-1.1,2.3-1.7c0.5-0.4,1.1-0.8,1.6-1.1c0.2-0.2,0.5-0.3,0.7-0.5c2.1-1.4,4.1-2.8,6.3-4.1c0.3-0.2,0.6-0.4,0.9-0.6
	c0.3-0.2,0.6-0.4,0.9-0.6c0.2-0.2,0.5-0.3,0.7-0.4c0.2-0.2,0.5-0.3,0.8-0.5c0.8-0.5,1.6-1,2.5-1.5c28.7-16.6,62-26.1,97.5-26.1
	c35.3,0,68.4,9.4,96.9,25.8c19,10.9,36,25,50.3,41.5c2,2.4,4,4.8,6,7.2c2.9,3.7,5.7,7.4,8.3,11.3c0.7,1,1.3,1.9,1.9,2.9
	c1.3,2,2.5,4,3.7,6c0.6,1,1.2,2,1.8,3c1.5,2.7,3,5.4,4.4,8.1c0.8,1.6,1.6,3.2,2.4,4.9c0.8,1.6,1.5,3.3,2.3,4.9
	c0.5,1.2,1.1,2.5,1.6,3.7c0.1,0.2,0.2,0.5,0.3,0.7c0.2,0.4,0.4,0.8,0.5,1.2c0.4,1,0.8,1.9,1.1,2.9c0.1,0.1,0.1,0.3,0.2,0.4
	c0,0,0.1,0.1,0.1,0.2v0c0.3,0.7,0.6,1.4,0.8,2.1c0.1,0.2,0.1,0.3,0.2,0.5c0.3,0.8,0.6,1.7,0.9,2.6c0.3,1,0.7,1.9,1,2.9
	c0.6,1.9,1.3,3.9,1.9,5.9c0.3,0.9,0.5,1.8,0.8,2.6c0.5,1.8,1,3.5,1.4,5.3c0.4,1.4,0.7,2.9,1,4.3c0.3,1.5,0.6,2.9,1,4.4
	c0.4,2,0.8,3.9,1.1,5.9c0.1,0.6,0.2,1.1,0.3,1.7c0.1,0.8,0.3,1.6,0.4,2.4c0.2,1.1,0.3,2.2,0.5,3.3c0,0.3,0.1,0.5,0.1,0.8
	c0,0.2,0.1,0.5,0.1,0.7c0.1,1,0.2,2,0.3,3c0.1,0.8,0.2,1.5,0.2,2.3c0,0,0,0.1,0,0.1c0,0.2,0,0.3,0,0.5c0.1,0.5,0.1,1.1,0.1,1.6
	c0,0.4,0.1,0.9,0.1,1.3c0,0.4,0.1,0.8,0.1,1.2c0,0.6,0.1,1.2,0.1,1.8c0,0,0,0.1,0,0.1c0,0.1,0,0.2,0,0.3c0,0.5,0.1,1,0.1,1.5
	c0,0,0,0.1,0,0.1v0c0.1,1,0.1,2,0.2,3.1v0.1C494.6,218,494.6,218.2,494.6,218.4z"/>
<rect x="105.4" y="218.4" class="st0" width="389.2" height="8.6"/>
<line class="st7" x1="301.1" y1="469.3" x2="301.1" y2="596.1"/>
<g>
	<path class="st2" d="M335.3,403.8v34c-2.1,1.4-4.2,3.1-6.4,5c-0.9,0.7-1.8,1.5-2.7,2.3c-8.9,7.9-18.2,18.2-25.2,27.6
		c-7.3-9.9-17.4-20.7-26.8-28.8c-2.4-2-4.8-3.9-7-5.5v-34.2c10.7,2,21.8,3.1,33.1,3.1C312.3,407.2,324,406,335.3,403.8z"/>
	<path class="st5" d="M335.3,403.8v2.6c-11.3,2.2-23,3.4-34.9,3.4c-11.3,0-22.4-1.1-33.1-3.1v-2.6c10.7,2,21.8,3.1,33.1,3.1
		C312.3,407.2,324,406,335.3,403.8z"/>
</g>
<line class="st7" x1="287.1" y1="493" x2="315" y2="493"/>
<line class="st7" x1="285.7" y1="524.3" x2="315" y2="524.3"/>
<line class="st7" x1="287.1" y1="555.7" x2="315" y2="555.7"/>
<line class="st7" x1="287.1" y1="587" x2="315" y2="587"/>
<circle class="st8" cx="316" cy="493" r="5"/>
<circle class="st8" cx="285.9" cy="555.7" r="5"/>
<circle class="st8" cx="285.9" cy="524.3" r="5"/>
<circle class="st8" cx="285.9" cy="493" r="5"/>
<circle class="st8" cx="316" cy="587" r="5"/>
<circle class="st8" cx="316" cy="555.7" r="5"/>
<circle class="st8" cx="316" cy="524.3" r="5"/>
<circle class="st8" cx="285.9" cy="587" r="5"/>
</svg>
