<?xml version="1.0" encoding="utf-8"?>
<!-- Generator: Adobe Illustrator 22.0.1, SVG Export Plug-In . SVG Version: 6.00 Build 0)  -->
<svg version="1.1" id="Layer_1" xmlns="http://www.w3.org/2000/svg" xmlns:xlink="http://www.w3.org/1999/xlink" x="0px" y="0px"
	 viewBox="0 0 600 600" style="enable-background:new 0 0 600 600;" xml:space="preserve">
<style type="text/css">
	.st0{fill:#6E443A;}
	.st1{fill:#FBB150;}
	.st2{fill:#FFE6C5;}
	.st3{fill:#10A9E1;}
	.st4{fill:#F2D0A7;}
	.st5{fill:#FFFFFF;}
	.st6{fill:none;stroke:#6E443A;stroke-width:3;stroke-linecap:round;stroke-linejoin:round;stroke-miterlimit:10;}
	.st7{fill:#472821;}
</style>
<g>
	<path class="st0" d="M498.8,262.2c0,0,103.9,21.1,79.9,159.5s21.3,142,21.3,142s-92.7-10.2-125.5-85.4s-11-178.8-11-178.8
		L498.8,262.2z"/>
	<path class="st0" d="M101.2,259.8c0,0-103.9,21.1-79.9,159.5S0,561.3,0,561.3s92.7-10.2,125.5-85.4s11-178.8,11-178.8L101.2,259.8z
		"/>
	<circle class="st1" cx="472.6" cy="272.2" r="27.3"/>
	<circle class="st1" cx="125.5" cy="272.2" r="27.3"/>
	<path class="st2" d="M504.9,242.1c0,16.1-12.7,29.3-28.6,30.1c-0.5,0-1,0-1.5,0c-1.2,0-2.4-0.1-3.5-0.2c1.3-6.1,2.2-12.2,2.9-18.5
		c1.3-7,1.6-13.6,1.1-19.8c-0.4,0.1-0.8,0.2-1.2,0.2c-7.5,1.1-16.5-2.6-25.1-7.2c3.5-5.9,9-10.5,15.6-12.9c3.2-1.2,6.6-1.8,10.2-1.8
		C491.4,212,504.9,225.5,504.9,242.1z"/>
	<circle class="st2" cx="125.5" cy="242.1" r="30.1"/>
	<path class="st3" d="M173.5,577.4c15.2,0,27.6-12.4,27.6-27.6c0-14.8-11.6-26.9-26.2-27.6l3.3-65.8c3.6-1.5,7.3-2.9,11-4.3
		c0.9-0.3,1.9-0.7,2.9-1c1.2,8.8,8.8,15.6,17.9,15.6c6.2,0,11.8-3.2,15-8l74.7,69.2l7.5-6.9c4.2,1.6,8.8,2.5,13.6,2.5
		c20.7,0,37.5-16.8,37.5-37.5c0-3.6-0.5-7-1.5-10.3l33.4-30.5c10.9,3,21.3,6.6,31.3,10.6l1.6,32.1c-14.9,4.9-25.7,19-25.7,35.6
		c0,17.9,12.5,32.8,29.2,36.6l2,41.8H276.3c-6.5-9.8-17.6-16.2-30.1-16.2c-12.6,0-23.7,6.4-30.1,16.2h-45.1l1.2-24.8
		C172.6,577.4,173.1,577.4,173.5,577.4z M364.4,577.4c0-8.9-7.2-16.1-16.1-16.1s-16.1,7.2-16.1,16.1s7.2,16.1,16.1,16.1
		S364.4,586.3,364.4,577.4z M256.3,528.1c0-5.6-4.5-10.2-10.2-10.2c-5.6,0-10.2,4.5-10.2,10.2s4.5,10.2,10.2,10.2
		C251.8,538.3,256.3,533.7,256.3,528.1z"/>
	<path class="st1" d="M426.8,560.4c-16.7-3.8-29.2-18.7-29.2-36.6c0-16.6,10.8-30.7,25.7-35.6L426.8,560.4z"/>
	<path class="st1" d="M357,475.9c1,3.3,1.5,6.7,1.5,10.3c0,20.7-16.8,37.5-37.5,37.5c-4.8,0-9.4-0.9-13.6-2.5L357,475.9z"/>
	<circle class="st1" cx="348.3" cy="577.4" r="16.1"/>
	<path class="st1" d="M276.3,602.1H216c6.5-9.8,17.6-16.2,30.1-16.2C258.8,585.9,269.8,592.4,276.3,602.1z"/>
	<path class="st1" d="M210.6,445.4L210.6,445.4l14.5,13.4l0,0c-3.3,4.8-8.8,8-15,8c-9.1,0-16.7-6.8-17.9-15.6c1.4-0.5,2.9-1,4.4-1.5
		c1.6-0.5,3.1-1,4.7-1.5c1.5-0.5,3.1-1,4.6-1.4C207.4,446.3,209,445.8,210.6,445.4z"/>
	<circle class="st1" cx="246.2" cy="528.1" r="10.2"/>
	<path class="st1" d="M172.2,577.4l2.8-55.1c14.6,0.7,26.2,12.8,26.2,27.6c0,15.2-12.4,27.6-27.6,27.6
		C173.1,577.4,172.6,577.4,172.2,577.4z"/>
	<path class="st2" d="M421.7,456c70.3,28.3,82.6,144.2,82.5,146.2h-75.4l-2-41.8l-3.5-72.2L421.7,456z"/>
	<path class="st2" d="M178.2,456.4l-3.3,65.8l-2.8,55.1l-1.2,24.8H91.3C91.2,600.2,108.5,484.8,178.2,456.4z"/>
	<path class="st2" d="M390.4,445.4L357,475.9l-49.6,45.3l-7.5,6.9l-74.7-69.2l0,0l-14.5-13.4c14.6-4.1,32.2-7.1,48.1-9.2v-30.6
		c13.3,3.3,27.3,5,41.6,5c14.5,0,28.6-1.8,42.1-5.1v30.7C358.6,438.2,375.5,441.2,390.4,445.4z"/>
	<path class="st2" d="M474.1,253.4c-0.6,6.3-1.6,12.5-2.9,18.5c-8.6,41.2-31.7,77-63.8,101.9c-19,14.8-41.1,25.8-65.2,31.7
		c-13.5,3.3-27.6,5.1-42.1,5.1c-14.3,0-28.3-1.7-41.6-5c-24.9-6.1-47.7-17.5-67.1-32.9c-40.3-32-66.1-81.4-66.1-136.8
		c0-0.9,0-1.8,0-2.7c12,1.8,28.2-8.9,40-16.1c0.1-0.1,0.2-0.1,0.3-0.2c25.6-15.8,54.5-34.1,78.9-49.5c1.4-0.9,2.9-1.8,4.3-2.7
		c1.8-1.2,12.5-7.8,23.5-14.7c0.4-0.2,0.8-0.5,1.1-0.7c10.7-6.7,21.6-13.4,25-15.6c0.1-0.1,0.2-0.1,0.4-0.2c0.5-0.3,0.8-0.5,0.8-0.5
		c0.2,0.1,0.4,0.2,0.6,0.4c0.1,0.1,0.3,0.2,0.4,0.3c0.4,0.3,1,0.6,1.6,1c0.1,0.1,0.3,0.2,0.5,0.3c1.2,0.8,2.8,1.8,4.6,2.9
		c1,0.6,2,1.3,3.2,2c0.9,0.6,1.9,1.3,2.9,1.9c0.6,0.4,1.2,0.7,1.8,1.1c13.7,8.8,34.9,22.3,58.2,37c1.6,1,3.2,2.1,4.9,3.1
		c6.6,4.1,13.3,8.4,20,12.6c1.2,0.8,2.5,1.5,3.7,2.3c10.7,6.7,21.3,13.3,31.5,19.6c0.2,0.1,0.4,0.3,0.6,0.4c4.5,2.8,9.5,6,14.8,8.9
		c8.6,4.7,17.7,8.4,25.1,7.2c0.4-0.1,0.8-0.1,1.2-0.2C475.8,239.8,475.4,246.4,474.1,253.4z"/>
	<g>
		<path class="st4" d="M475.3,234.9c0-0.4,0-0.8,0-1.2c-0.4,0.1-0.8,0.2-1.2,0.2c-0.5,0.1-1,0.1-1.5,0.1
			C473.5,234.3,474.4,234.6,475.3,234.9z"/>
		<path class="st4" d="M269.9,407.5c-24.9-6.1-47.7-17.5-67.1-32.9c-40.3-32-66.1-81.4-66.1-136.8c0-0.9,0-1.8,0-2.7
			c12,1.8,28.2-8.9,40-16.1c0.1-0.1,0.2-0.1,0.3-0.2c25.6-15.8,54.4-34.1,78.9-49.5c1.4-0.9,2.9-1.8,4.3-2.7
			c1.8-1.2,12.5-7.8,23.5-14.7c0.4-0.2,0.8-0.5,1.1-0.7c8.4-5.3,17-10.6,21.9-13.7c-1.5-1-2.8-1.8-3.9-2.5c-0.2-0.1-0.3-0.2-0.5-0.3
			c-0.6-0.4-1.1-0.7-1.6-1c-0.1-0.1-0.3-0.2-0.4-0.3c-0.3-0.2-0.5-0.3-0.6-0.4c0,0-0.3,0.2-0.8,0.5c-0.1,0.1-0.2,0.1-0.3,0.2
			c-3.5,2.2-14.3,8.9-25,15.6c-0.4,0.2-0.8,0.5-1.1,0.7c-11.1,6.9-21.7,13.5-23.5,14.7c-1.4,0.9-2.8,1.8-4.3,2.7
			c-24.4,15.5-53.3,33.7-78.9,49.5c-0.1,0.1-0.2,0.1-0.3,0.2c-11.7,7.3-27.9,18-40,16.1c0,0.9,0,1.8,0,2.7
			c0,55.4,25.8,104.8,66.1,136.8c19.4,15.5,42.2,26.9,67.1,32.9c6.4,1.6,12.9,2.8,19.5,3.6C275.4,408.7,272.6,408.1,269.9,407.5z"/>
	</g>
	<path class="st4" d="M342.3,405.5v2.2c-0.2,0-0.4,0.1-0.6,0.1c-13.5,3.3-27.6,5.1-42.1,5.1c-14.1,0-27.8-1.7-41-4.8v-2.5
		c13.3,3.3,27.3,5,41.6,5C314.8,410.6,328.9,408.9,342.3,405.5z"/>
	<path class="st4" d="M178.2,456.5L178.2,456.5c-69.7,28.3-87,143.6-86.9,145.6h9.4C100.6,600.2,116.5,494.5,178.2,456.5z"/>
	<g>
		<g>
			<g>
				<circle cx="225.8" cy="254.7" r="25.4"/>
				<circle class="st5" cx="234.9" cy="246.6" r="9"/>
			</g>
			<g>
				<circle cx="373.8" cy="254.7" r="25.4"/>
				<circle class="st5" cx="382.8" cy="246.6" r="9"/>
			</g>
		</g>
		<g>
			<path class="st6" d="M347,211.3c20-14.3,47.7-9.7,61.9,10.2"/>
			<path class="st6" d="M252.6,212.8c-20-14.3-47.7-9.7-61.9,10.2"/>
		</g>
	</g>
	<path class="st5" d="M344,334.1c-7.3,14.2-24.3,24.2-44.2,24.2c-19.9,0-36.9-10-44.2-24.2c13,7.4,28.1,11.7,44.2,11.7
		C315.9,345.8,331,341.6,344,334.1z"/>
	<path class="st4" d="M483.4,237.4c-0.6,6.3-1.6,12.5-2.9,18.5c-1.2,5.5-2.6,10.9-4.3,16.2c-0.5,0-1,0-1.5,0c-1.2,0-2.4-0.1-3.5-0.2
		c1.3-6.1,2.2-12.2,2.9-18.5c1.3-7,1.6-13.6,1.1-19.8c-0.4,0.1-0.8,0.2-1.2,0.2c-7.5,1.1-16.5-2.6-25.1-7.2
		c3.5-5.9,9-10.5,15.6-12.9c6.6,3,13.1,4.9,18.8,4.1c0.4-0.1,0.8-0.1,1.2-0.2C485,223.8,484.7,230.3,483.4,237.4z"/>
	<path class="st0" d="M165.5,217c-11.7,7.3-27.9,18-40,16.1c-8.9-1.4-15.5-9.6-16.5-31.2c-1.1-24.8,3.6-70.4,25.6-112.1
		c0.9-1.7,1.8-3.4,2.8-5.1c4.9-8.7,10.6-17.1,17.2-25.2c3.1-3.8,6.4-7.4,9.9-11c28.9-29.4,71.9-50.6,135.3-50.7l0,0.7
		C363.2-1.3,406.2,20,435.1,49.3c3.5,3.6,6.8,7.2,9.9,11c6.6,8,12.3,16.5,17.2,25.2c1,1.7,1.9,3.4,2.8,5.1
		c22,41.7,26.7,87.3,25.6,112.1c-0.9,20.6-7,29-15.3,30.9c-0.4,0.1-0.8,0.2-1.2,0.2c-12,1.8-28.2-8.9-40-16.1
		c-0.2-0.1-0.4-0.2-0.6-0.4c-10.1-6.3-20.8-12.9-31.5-19.6c-1.2-0.8-2.5-1.5-3.7-2.3c-6.7-4.2-13.4-8.4-20-12.6
		c-1.6-1-3.3-2.1-4.9-3.1c-23.2-14.7-44.4-28.2-58.2-37c-0.6-0.4-1.2-0.8-1.8-1.1c-1-0.7-2-1.3-3-1.9c-1.1-0.7-2.2-1.4-3.2-2
		c-1.8-1.2-3.4-2.1-4.6-2.9c-0.2-0.1-0.3-0.2-0.5-0.3c-0.6-0.4-1.1-0.7-1.6-1c-0.1-0.1-0.3-0.2-0.4-0.3c-0.3-0.2-0.5-0.3-0.6-0.4
		c0,0-0.3,0.2-0.8,0.5c-0.1,0.1-0.2,0.1-0.3,0.2c-3.5,2.2-14.3,8.9-25,15.6c-0.4,0.2-0.8,0.5-1.1,0.7c-11.1,6.9-21.7,13.5-23.5,14.7
		c-1.4,0.9-2.8,1.8-4.3,2.7c-24.4,15.5-53.3,33.7-78.9,49.5C165.7,216.9,165.6,217,165.5,217z"/>
	<g>
		<path class="st7" d="M116.5,202c-1.1-24.8,3.6-70.4,25.6-112.1c0.9-1.7,1.8-3.4,2.8-5.1c4.9-8.7,10.6-17.1,17.2-25.2
			c3.1-3.8,6.4-7.4,9.9-11C199.7,20.4,240.5-0.3,299.8-2l0-0.1c-63.4,0.1-106.4,21.4-135.3,50.7c-3.5,3.6-6.8,7.2-9.9,11
			c-6.6,8-12.3,16.5-17.2,25.2c-1,1.7-1.9,3.4-2.8,5.1c-22,41.7-26.7,87.3-25.6,112.1c0.9,21.6,7.6,29.8,16.5,31.2
			c2.1,0.3,4.4,0.2,6.8-0.1C123.8,231.3,117.4,223,116.5,202z"/>
		<path class="st7" d="M441.6,217.8c-0.2-0.1-0.4-0.2-0.6-0.4c-10.1-6.3-20.8-12.9-31.5-19.6c-1.2-0.8-2.5-1.5-3.7-2.3
			c-6.7-4.2-13.4-8.4-20-12.6c-1.6-1-3.3-2.1-4.9-3.1c-23.2-14.7-44.4-28.2-58.2-37c-0.6-0.4-1.2-0.8-1.8-1.1c-1-0.7-2-1.3-3-1.9
			c-1.1-0.7-2.2-1.4-3.2-2c-1.8-1.2-3.4-2.1-4.6-2.9c-0.2-0.1-0.3-0.2-0.5-0.3c-0.6-0.4-1.1-0.7-1.6-1c-0.1-0.1-0.3-0.2-0.4-0.3
			c-0.3-0.2-0.5-0.3-0.6-0.4c0,0-0.3,0.2-0.8,0.5c-0.1,0.1-0.2,0.1-0.3,0.2c-0.6,0.4-1.5,1-2.6,1.6c1.1,0.7,2.4,1.6,4,2.6
			c1,0.6,2,1.3,3.2,2c0.9,0.6,1.9,1.2,3,1.9c0.6,0.4,1.2,0.7,1.8,1.1c13.7,8.8,34.9,22.3,58.2,37c1.6,1,3.2,2.1,4.9,3.1
			c6.6,4.2,13.3,8.4,20,12.6c1.2,0.8,2.5,1.5,3.7,2.3c10.7,6.7,21.3,13.3,31.5,19.6c0.2,0.1,0.4,0.3,0.6,0.4
			c11.7,7.3,27.9,18,40,16.1c0.2,0,0.5-0.1,0.7-0.1C463.9,232,451.3,223.7,441.6,217.8z"/>
	</g>
</g>
</svg>
