<?xml version="1.0" encoding="utf-8"?>
<!-- Generator: Adobe Illustrator 22.0.1, SVG Export Plug-In . SVG Version: 6.00 Build 0)  -->
<svg version="1.1" id="Layer_1" xmlns="http://www.w3.org/2000/svg" xmlns:xlink="http://www.w3.org/1999/xlink" x="0px" y="0px"
	 viewBox="0 0 600 600" style="enable-background:new 0 0 600 600;" xml:space="preserve">
<style type="text/css">
	.st0{fill:#DA1C5C;}
	.st1{fill:#FFE6C5;}
	.st2{fill:#EACFB1;}
	.st3{fill:#D87DAD;}
	.st4{fill:#EC95BF;}
	.st5{fill:#BF1E53;}
	.st6{fill:#60381A;}
	.st7{fill:#BE1E2D;}
	.st8{fill:#EC008C;}
	.st9{fill:#FBB040;}
	.st10{opacity:0.32;}
	.st11{fill:#FFFFFF;}
	.st12{fill:#754C29;}
</style>
<path class="st0" d="M364.9,428.4c-2.1,1-4.2,1.9-6.3,2.8v-7.5c3.9,0.6,7.8,1.2,11.7,1.9c-1.7,0.9-3.3,1.7-5,2.5
	C365.1,428.3,365,428.4,364.9,428.4z"/>
<path class="st0" d="M241.4,423.8v7.5c-2-0.9-4-1.7-6-2.7c-1.9-0.9-3.8-1.9-5.7-2.8C233.6,425,237.5,424.3,241.4,423.8z"/>
<path class="st1" d="M464.3,226.8c0,2.9-0.1,5.8-0.2,8.6v0c-0.4,7.5-1.3,14.8-2.7,22c-2.1,11.2-5.4,22-9.7,32.3v0
	c-17.3,41.5-51.1,74.5-93.2,90.6c-2,0.8-4.1,1.5-6.2,2.2c-1.5,0.5-3,1-4.5,1.5c-1,0.3-2,0.6-3,0.9c-1.2,0.4-2.5,0.7-3.8,1
	c-1,0.3-2,0.5-3,0.8c-3.7,0.9-7.4,1.6-11.2,2.2c-0.8,0.1-1.5,0.3-2.3,0.4c-2.8,0.4-5.6,0.8-8.4,1c-0.9,0.1-1.8,0.2-2.6,0.2
	c-1,0.1-2,0.2-3.1,0.2c-1,0-1.9,0.1-2.8,0.2c-1.3,0-2.6,0.1-3.9,0.1c-1.3,0-2.6,0-3.8,0c-5.2,0-10.2-0.2-15.3-0.7
	c-2.2-0.2-4.4-0.5-6.6-0.8c-6.5-0.8-13-2.1-19.2-3.8c-1.2-0.3-2.4-0.6-3.6-1c-4.6-1.3-9.1-2.8-13.5-4.5l-0.4-0.1
	c-36.5-13.9-66.8-40.5-85.5-74.4c8.7,15.8,19.9,29.9,33.1,42c-8.9-12.5-16.5-25.9-22.5-40.3v0c-3.8-9.2-7-18.7-9.4-28.5
	c-3.9-15.7-6-32-6-48.9c0-12.3,1.2-24.3,3.3-36c11.4,0.3,23-0.1,29.3-2.2c1.2-0.4,2.4-1,3.7-1.8c6.4,1.9,9.5,1.6,14.9-1.1
	c7.8-3.8,22.7-39.6,23.1-40.7c-0.2,1.1-7.3,36.6-19.4,45.8c0,0,45.7,8.8,56.9,0c0.1-0.1,0.3-0.2,0.4-0.3c5.3,0.5,11.7,0.8,16,0.6
	c10.6-18.4,14.4-34.1,15.7-42.9c3-5.4,4.8-9,4.8-9s1.8,27.3-11.8,53c0,0,45.1,7.1,57.1-0.6c18.1-11.6,33.6-51.1,33.6-51.1
	s8.4,55,39.1,52.9c16.4-1.1,31.1-4,42.2-6.8c1.1,4.8,2,9.6,2.6,14.5C463.8,212,464.3,219.4,464.3,226.8z"/>
<path class="st1" d="M225.6,148.6L225.6,148.6C225.6,148.6,225.6,148.6,225.6,148.6c-0.5,1.1-15.3,36.9-23.1,40.7
	c-5.5,2.6-8.5,2.9-14.9,1.1C202.9,181.5,224.8,149.7,225.6,148.6z"/>
<path class="st1" d="M295.2,151.8c-1.3,8.8-5,24.5-15.7,42.9c-4.3,0.2-10.7,0-16-0.6C275.9,184.2,288.5,163.6,295.2,151.8z"/>
<path class="st2" d="M225.6,148.6C225.6,148.6,225.6,148.6,225.6,148.6c-0.5,1.1-15.3,36.9-23.1,40.7c-5.5,2.6-8.5,2.9-14.9,1.1h0
	L225.6,148.6L225.6,148.6z"/>
<path class="st2" d="M189,348c-13.2-12.1-24.4-26.2-33.1-42c-0.4-0.7-0.7-1.3-1.1-2c-0.4-0.7-0.7-1.3-1-2c-0.3-0.7-0.7-1.3-1-2
	c-0.3-0.7-0.7-1.4-1-2c-0.4-0.8-0.8-1.6-1.2-2.5c-0.6-1.2-1.1-2.5-1.7-3.7c-0.3-0.7-0.6-1.4-0.9-2.1v0c-3.1-7.5-5.7-15.2-7.6-23.2
	c-3.2-12.7-4.9-26-4.9-39.8c0-11.4,1.2-22.5,3.4-33.2c0.9,0.1,1.9,0.1,2.8,0.2c0.7,0,1.4,0.1,2,0.1c0.9,0,1.7,0.1,2.6,0.1
	c1.8,0.1,3.6,0.2,5.4,0.2c0.8,0,1.7,0.1,2.5,0.1c-2.1,11.7-3.3,23.7-3.3,36c0,16.9,2.1,33.2,6,48.9c2.4,9.8,5.6,19.3,9.4,28.5v0
	C172.5,322.1,180.1,335.5,189,348z"/>
<path class="st3" d="M230.7,452.1c-0.1-0.3-0.2-0.6-0.3-0.9c-0.7,0.2-1.4,0.3-2.2,0.5C229.1,451.9,229.9,452,230.7,452.1z"/>
<g>
	<path class="st4" d="M585.2,600H14.8c13.1-76.6,85-140.2,182.3-166.9c3.2,11.1,13.5,19.2,25.6,19.2c2.7,0,5.3-0.4,7.7-1.1
		c2.8,11.7,13.3,20.4,25.9,20.4c8,0,15.2-3.5,20-9.1c4.4,8.5,13.3,14.3,23.6,14.3c10.5,0,19.6-6.1,23.9-15
		c4.8,4.8,11.4,7.7,18.6,7.7c12.1,0,22.3-8.1,25.6-19.2c3.1,1.3,6.5,2,10.1,2c12.1,0,22.2-8,25.5-19
		C500.6,460.2,572.1,523.6,585.2,600z"/>
	<path class="st0" d="M222.8,452.3c-12.1,0-22.4-8.1-25.6-19.2c10.6-2.9,21.4-5.4,32.5-7.4c1.9,1,3.8,1.9,5.7,2.8c2,0.9,4,1.8,6,2.7
		c2.2,0.9,4.4,1.8,6.7,2.6c4.3,1.6,8.7,2.9,13.2,4.1c1,0.3,2,0.5,3,0.8c0.8,0.2,1.7,0.4,2.5,0.6c0.9,0.2,1.8,0.4,2.7,0.6
		c1.8,0.4,3.6,0.7,5.5,1c0.2,0,0.3,0.1,0.5,0.1c1.1,0.2,2.3,0.4,3.4,0.5c1.3,0.2,2.6,0.4,3.9,0.5c1.4,0.2,2.8,0.3,4.2,0.4
		c1.4,0.2,2.8,0.2,4.3,0.3c1.1,0.1,2.1,0.1,3.2,0.2c0.5,0,1,0.1,1.6,0.1c1.3,0,2.6,0.1,3.9,0.1c1.7,0,3.4,0,5-0.1c1,0,2-0.1,3-0.1
		c2.7-0.1,5.3-0.3,7.9-0.6c0.3,0,0.6-0.1,1-0.1c1.2-0.1,2.4-0.3,3.5-0.4c1.4-0.2,2.9-0.4,4.3-0.6c0.1,0,0.1,0,0.1,0
		c0.1,0,0.1,0,0.2,0c1.1-0.2,2.3-0.4,3.4-0.6c1.4-0.3,2.9-0.6,4.3-0.9c0.8-0.2,1.5-0.3,2.2-0.5c2.2-0.5,4.4-1.1,6.5-1.7
		c1-0.3,2-0.6,2.9-0.9c0.6-0.2,1.2-0.4,1.8-0.6c1-0.3,2-0.6,3-1c1.1-0.4,2.3-0.8,3.4-1.2c2-0.7,3.9-1.5,5.8-2.3
		c2.1-0.9,4.2-1.8,6.3-2.8c0.1-0.1,0.3-0.1,0.4-0.2c1.7-0.8,3.4-1.7,5-2.5c11.4,2.1,22.6,4.6,33.4,7.6c-3.3,11-13.5,19-25.5,19
		c-3.6,0-7-0.7-10.1-2c-3.2,11.1-13.5,19.2-25.6,19.2c-7.3,0-13.8-2.9-18.6-7.7c-4.3,8.9-13.4,15-23.9,15
		c-10.3,0-19.2-5.8-23.6-14.3c-4.9,5.6-12.1,9.1-20,9.1c-12.5,0-23.1-8.7-25.9-20.4C228,451.9,225.4,452.3,222.8,452.3z"/>
	<path class="st3" d="M198.2,436c-0.4-1-0.8-1.9-1.1-3C99.8,459.8,27.9,523.4,14.8,600H26C38.7,526.1,106.1,464.3,198.2,436z"/>
	<path class="st5" d="M234.2,427.9c-1.5-0.7-3-1.5-4.5-2.2c-11.1,2-22,4.5-32.5,7.4c0.3,1,0.7,2.1,1.1,3
		C209.9,432.9,221.9,430.2,234.2,427.9z"/>
</g>
<path class="st6" d="M148,194.1c5.6,0.2,11.5,0.4,17,0.3c-5.9-0.1-11.7-0.4-16.9-0.7C148,193.8,148,194,148,194.1z"/>
<g>
	<path class="st7" d="M395,95.3L395,95.3l-0.2,0C394.9,95.3,395,95.3,395,95.3z"/>
	<path class="st8" d="M395,95.3L395,95.3l-0.2,0C394.9,95.3,395,95.3,395,95.3z"/>
	<path class="st9" d="M395,95.3L395,95.3l-0.2,0C394.9,95.3,395,95.3,395,95.3z"/>
</g>
<path class="st8" d="M395,95.3L395,95.3l-0.2,0C394.9,95.3,395,95.3,395,95.3z"/>
<path class="st8" d="M395,95.3L395,95.3l-0.2,0C394.9,95.3,395,95.3,395,95.3z"/>
<path class="st10" d="M404.8,165.9c-8.6,1.2-16.9-0.8-23.8-5.1c6.2,3.2,13.4,4.5,20.9,3.4c18-2.5,31-18.1,30.7-35.8
	c0-0.6,0-1.2-0.1-1.9c0.9-0.1,1.8-0.3,2.7-0.5c0.1,0.7,0.2,1.4,0.2,2C436.8,146.7,423.5,163.3,404.8,165.9z"/>
<path class="st7" d="M395,95.3L395,95.3l-0.2,0C394.9,95.3,395,95.3,395,95.3z"/>
<path class="st9" d="M395,95.3L395,95.3l-0.2,0C394.9,95.3,395,95.3,395,95.3z"/>
<g>
	<path class="st1" d="M358.6,380.4v50.8c-1.9,0.8-3.9,1.6-5.8,2.3c-1.1,0.4-2.2,0.8-3.4,1.2c-1,0.3-2,0.7-3,1
		c-0.6,0.2-1.2,0.4-1.8,0.6c-1,0.3-1.9,0.6-2.9,0.9c-2.1,0.6-4.3,1.2-6.5,1.7c-0.7,0.2-1.4,0.3-2.2,0.5c-1.4,0.3-2.9,0.6-4.3,0.9
		c-1.1,0.2-2.3,0.4-3.4,0.6c-0.1,0-0.1,0-0.2,0c-0.1,0-0.1,0-0.1,0c-1.4,0.2-2.9,0.4-4.3,0.6c-1.2,0.2-2.4,0.3-3.5,0.4
		c-0.3,0-0.6,0.1-1,0.1c-2.6,0.3-5.3,0.5-7.9,0.6c-1,0.1-2,0.1-3,0.1c-1.7,0.1-3.4,0.1-5,0.1c-1.3,0-2.6,0-3.9-0.1
		c-0.5,0-1.1,0-1.6-0.1c-1.1,0-2.1-0.1-3.2-0.2c-1.4-0.1-2.9-0.2-4.3-0.3c-1.4-0.1-2.8-0.3-4.2-0.4c-1.3-0.1-2.6-0.3-3.9-0.5
		c-1.1-0.2-2.3-0.3-3.4-0.5l-0.5-0.1c-1.8-0.3-3.6-0.6-5.5-1c-0.9-0.2-1.8-0.4-2.7-0.6c-0.9-0.2-1.7-0.4-2.5-0.6c-1-0.2-2-0.5-3-0.8
		c-4.5-1.2-8.9-2.6-13.2-4.1c-2.3-0.8-4.5-1.7-6.7-2.6v-32.1c0.7-3.6,0.8-8.6,0.6-14.7c-0.1-1.2-0.1-2.5-0.2-3.8
		c4.4,1.7,8.9,3.2,13.5,4.4c1.2,0.3,2.4,0.7,3.6,1c6.3,1.6,12.7,2.9,19.2,3.8c2.2,0.3,4.4,0.5,6.6,0.8c5,0.5,10.1,0.7,15.3,0.7
		c1.3,0,2.6,0,3.9-0.1c1.3,0,2.6-0.1,3.9-0.1c0.9-0.1,1.9-0.1,2.8-0.2c1-0.1,2-0.1,3.1-0.2c0.9-0.1,1.7-0.1,2.6-0.2
		c2.8-0.3,5.6-0.6,8.4-1c0.8-0.1,1.6-0.2,2.3-0.4c3.8-0.6,7.5-1.4,11.2-2.3c1-0.2,2-0.5,3-0.8c1.3-0.3,2.5-0.6,3.8-1
		c1-0.3,2-0.6,3-0.9c1.5-0.5,3-0.9,4.5-1.4C354.4,382,356.5,381.2,358.6,380.4z"/>
	<path class="st2" d="M358.6,380.4v4c-1.9,0.7-3.9,1.4-5.8,2.1c-1.5,0.5-3,1-4.5,1.4c-1,0.3-2,0.6-3,0.9c-1.2,0.4-2.5,0.7-3.8,1
		c-1,0.3-2,0.5-3,0.8c-3.7,0.9-7.4,1.6-11.2,2.3c-0.8,0.1-1.5,0.3-2.3,0.4c-2.8,0.4-5.6,0.8-8.4,1c-0.9,0.1-1.8,0.2-2.6,0.2
		c-1,0.1-2,0.2-3.1,0.2c-1,0.1-1.9,0.1-2.8,0.2c-1.3,0.1-2.6,0.1-3.9,0.1c-1.3,0-2.6,0.1-3.9,0.1c-5.1,0-10.2-0.2-15.3-0.7
		c-2.2-0.2-4.4-0.5-6.6-0.8c-6.5-0.9-13-2.1-19.2-3.8c-1.2-0.3-2.4-0.6-3.6-1c-4.6-1.3-9.1-2.8-13.5-4.4c-0.1,0-0.2-0.1-0.2-0.1
		c-0.1-1.2-0.1-2.5-0.2-3.8c4.4,1.7,8.9,3.2,13.5,4.4c1.2,0.3,2.4,0.7,3.6,1c6.3,1.6,12.7,2.9,19.2,3.8c2.2,0.3,4.4,0.5,6.6,0.8
		c5,0.5,10.1,0.7,15.3,0.7c1.3,0,2.6,0,3.9-0.1c1.3,0,2.6-0.1,3.9-0.1c0.9-0.1,1.9-0.1,2.8-0.2c1-0.1,2-0.1,3.1-0.2
		c0.9-0.1,1.7-0.1,2.6-0.2c2.8-0.3,5.6-0.6,8.4-1c0.8-0.1,1.6-0.2,2.3-0.4c3.8-0.6,7.5-1.4,11.2-2.3c1-0.2,2-0.5,3-0.8
		c1.3-0.3,2.5-0.6,3.8-1c1-0.3,2-0.6,3-0.9c1.5-0.5,3-0.9,4.5-1.4C354.4,382,356.5,381.2,358.6,380.4z"/>
	<g>
		<path class="st2" d="M303.4,391.2c1.3,0,2.6,0,3.9-0.1c1.3,0,2.6-0.1,3.9-0.1c0.9-0.1,1.9-0.1,2.8-0.2c1-0.1,2-0.1,3.1-0.2
			c0.9-0.1,1.7-0.1,2.6-0.2c2.8-0.3,5.6-0.6,8.4-1c0.8-0.1,1.6-0.2,2.3-0.4c3.8-0.6,7.5-1.4,11.2-2.3c1-0.2,2-0.5,3-0.8
			c1.3-0.3,2.5-0.6,3.8-1c1-0.3,2-0.6,3-0.9c1.5-0.5,3-0.9,4.5-1.4c0.9-0.3,1.9-0.7,2.8-1v-1.2c-2,0.8-4.1,1.5-6.2,2.2
			c-1.5,0.5-3,1-4.5,1.4c-1,0.3-2,0.6-3,0.9c-1.2,0.4-2.5,0.7-3.8,1c-1,0.3-2,0.5-3,0.8c-3.7,0.9-7.4,1.6-11.2,2.3
			c-0.8,0.1-1.5,0.3-2.3,0.4c-2.8,0.4-5.6,0.8-8.4,1c-0.9,0.1-1.7,0.2-2.6,0.2c-1,0.1-2,0.2-3.1,0.2c-1,0.1-1.9,0.1-2.8,0.2
			c-1.3,0.1-2.6,0.1-3.9,0.1c-0.6,0-1.1,0-1.7,0C302.6,391.2,303,391.2,303.4,391.2z"/>
		<path class="st2" d="M299.6,442.8c-0.5,0-1.1,0-1.6-0.1c-1.1,0-2.1-0.1-3.2-0.2c-1.4-0.1-2.9-0.2-4.3-0.3
			c-1.4-0.1-2.8-0.3-4.2-0.4c-1.3-0.1-2.6-0.3-3.9-0.5c-1.1-0.2-2.3-0.3-3.4-0.5l-0.5-0.1c-1.8-0.3-3.6-0.6-5.5-1
			c-0.9-0.2-1.8-0.4-2.7-0.6c-0.9-0.2-1.7-0.4-2.5-0.6c-1-0.2-2-0.5-3-0.8c-4.5-1.2-8.9-2.6-13.2-4.1c-2.3-0.8-4.5-1.7-6.7-2.6
			v-32.1c0.7-3.6,0.8-8.6,0.6-14.7c0-0.8-0.1-1.7-0.1-2.5c-1.2-0.4-2.4-0.8-3.5-1.2c0.1,1.3,0.2,2.6,0.2,3.8
			c0.2,6.1,0.1,11.1-0.6,14.7v32.1c2.2,0.9,4.4,1.8,6.7,2.6c4.3,1.6,8.7,2.9,13.2,4.1c1,0.3,2,0.5,3,0.8c0.8,0.2,1.7,0.4,2.5,0.6
			c0.9,0.2,1.8,0.4,2.7,0.6c1.8,0.4,3.6,0.7,5.5,1l0.5,0.1c1.1,0.2,2.3,0.3,3.4,0.5c1.3,0.2,2.6,0.4,3.9,0.5
			c1.4,0.2,2.8,0.3,4.2,0.4c1.4,0.1,2.9,0.2,4.3,0.3c1.1,0.1,2.1,0.1,3.2,0.2c0.5,0,1.1,0.1,1.6,0.1c1.3,0,2.6,0.1,3.9,0.1
			c0.5,0,0.9,0,1.4,0C300.8,442.9,300.2,442.9,299.6,442.8z"/>
	</g>
</g>
<g>
	<g>
		<g>
			<circle cx="222.6" cy="239.8" r="27.1"/>
			<circle class="st11" cx="232.2" cy="231.2" r="9.6"/>
		</g>
		<g>
			<circle cx="380.2" cy="239.8" r="27.1"/>
			<circle class="st11" cx="389.8" cy="231.2" r="9.6"/>
		</g>
	</g>
	<path class="st11" d="M344.3,316.2c-7,13.7-23.5,23.4-42.6,23.4c-19.2,0-35.6-9.6-42.6-23.4c12.6,7.2,27.1,11.3,42.6,11.3
		C317.2,327.5,331.8,323.3,344.3,316.2z"/>
</g>
<path class="st2" d="M295.9,144.3c0,0,0,2.7-0.7,7.5c-1.3,8.8-5,24.5-15.7,42.9c-4.3,0.2-10.7,0-16-0.6c-1.4-0.1-2.7-0.3-3.9-0.5
	C272,179.8,295.9,144.3,295.9,144.3z"/>
<path class="st12" d="M148.2,289.8c17.3,41.6,51.1,74.6,93.3,90.6v18.7c-4.1,22.1-178.5,17.2-178.5,17.2
	C116.5,352.5,23.4,1.4,306,1.4c126.1,0,119.1,56.2,119.1,56.2s26.7-33.3,55.8,30.8c19.5,43,15,222.8,56.4,310.7
	c0,0-121.5,21.5-178.8,5.2v-23.8c42.2-16.1,76-49,93.3-90.6v0c7-16.9,11.3-35.2,12.3-54.3v0c0.1-2.8,0.2-5.7,0.2-8.6
	c0-12.6-1.4-24.9-4.1-36.6c-11.1,2.8-25.8,5.7-42.2,6.8c-30.7,2.1-39.1-52.9-39.1-52.9s-15.5,39.4-33.6,51.1
	c-12,7.7-57.1,0.6-57.1,0.6c13.7-25.7,11.8-53,11.8-53s-18.8,37.5-36.9,51.7c-11.2,8.8-56.9,0-56.9,0c12.3-9.4,19.4-45.8,19.4-45.8
	s-26.3,38.4-41.8,43.5c-9.3,3.1-29.9,2.5-44.8,1.5c-2.2,10.7-3.4,21.8-3.4,33.2c0,13.7,1.7,27,4.9,39.8
	C142.5,274.6,145,282.3,148.2,289.8L148.2,289.8z"/>
<g>
	<circle class="st8" cx="391.8" cy="58" r="35.6"/>
	<circle class="st7" cx="427.6" cy="91.3" r="35.6"/>
	<circle class="st8" cx="397" cy="129" r="35.6"/>
	<circle class="st7" cx="357.2" cy="101.1" r="35.6"/>
	<circle class="st9" cx="392.8" cy="93.7" r="10.1"/>
</g>
<path class="st10" d="M435.5,128.2c-0.8,0.1-1.7,0.2-2.5,0.3h-0.3c0-0.6,0-1.2-0.1-1.9c0.9-0.1,1.8-0.3,2.7-0.5
	c17-3.7,29.1-19.4,27.9-37.2c-0.8-11.9-7.4-22.1-16.8-27.9c10.9,5.5,18.8,16.4,19.7,29.5C467.4,109.3,453.8,125.6,435.5,128.2z"/>
<circle class="st1" cx="135.7" cy="231.2" r="26.7"/>
<path class="st1" d="M492.9,231.2c0,14.8-12,26.7-26.7,26.7c-1.6,0-3.2-0.1-4.7-0.4c1.4-7.2,2.3-14.5,2.7-22v0
	c0.1-2.8,0.2-5.7,0.2-8.6c0-7.5-0.5-14.9-1.5-22.1c1.1-0.1,2.2-0.2,3.3-0.2C480.9,204.5,492.9,216.5,492.9,231.2z"/>
<path class="st2" d="M467.7,257.9c-0.5,0-1,0-1.5,0c-1.6,0-3.2-0.1-4.7-0.4c1.4-7.2,2.3-14.5,2.7-22v0c0.1-2.8,0.2-5.7,0.2-8.6
	c0-7.5-0.5-14.9-1.5-22.1c1.1-0.1,2.2-0.2,3.3-0.2c0.5,0,1,0,1.5,0c-0.7,0-1.3,0.1-1.9,0.2c1,7.2,1.5,14.6,1.5,22.1
	c0,2.9-0.1,5.8-0.2,8.6v0c-0.4,7.5-1.3,14.8-2.6,22C465.4,257.7,466.5,257.8,467.7,257.9z"/>
<path class="st2" d="M166.5,307.7c6,14.4,13.6,27.8,22.5,40.3c-13.2-12.1-24.4-26.2-33.1-42c-0.4-0.7-0.7-1.3-1.1-2
	c-0.4-0.7-0.7-1.3-1-2c-0.3-0.7-0.7-1.3-1-2c-0.3-0.7-0.7-1.4-1-2c-0.4-0.8-0.8-1.6-1.2-2.5c-0.6-1.2-1.1-2.5-1.7-3.7
	c-0.3-0.7-0.6-1.4-0.9-2.1v0c-3.1-7.5-5.7-15.2-7.6-23.2c-3.2-12.7-4.9-26-4.9-39.8c0-11.4,1.2-22.5,3.4-33.2
	c0.9,0.1,1.9,0.1,2.8,0.2c0.7,0,1.4,0.1,2,0.1c0.9,0,1.7,0.1,2.6,0.1c1.8,0.1,3.6,0.2,5.4,0.2c0.8,0,1.7,0.1,2.5,0.1
	c-2.1,11.7-3.3,23.7-3.3,36c0,16.9,2.1,33.2,6,48.9C159.6,289,162.7,298.5,166.5,307.7L166.5,307.7z"/>
<path class="st6" d="M72,416.2C125.4,352.7,33.1,3.7,312.4,1.5c-2.1,0-4.2-0.1-6.4-0.1C23.4,1.4,116.5,352.5,62.9,416.2
	c0,0,19.1,0.5,44.8,0.5C86.7,416.6,72,416.2,72,416.2z"/>
</svg>
