<?xml version="1.0" encoding="utf-8"?>
<!-- Generator: Adobe Illustrator 22.0.1, SVG Export Plug-In . SVG Version: 6.00 Build 0)  -->
<svg version="1.1" id="Layer_1" xmlns="http://www.w3.org/2000/svg" xmlns:xlink="http://www.w3.org/1999/xlink" x="0px" y="0px"
	 viewBox="0 0 600 600" style="enable-background:new 0 0 600 600;" xml:space="preserve">
<style type="text/css">
	.st0{fill:#F8D1B7;}
	.st1{fill:#EE2A7B;}
	.st2{fill:#E963A0;}
	.st3{fill:#DCA128;}
	.st4{fill:none;}
	.st5{fill:#EDBC9A;}
	.st6{fill:#D85E9B;}
	.st7{fill:#D62073;}
	.st8{fill:#D59529;}
	.st9{fill:#FFFFFF;}
	.st10{fill:none;stroke:#BB7B3C;stroke-width:4;stroke-linecap:round;stroke-linejoin:round;stroke-miterlimit:10;}
</style>
<g>
	<path class="st0" d="M340.1,409.3v61.3c-0.6,0.2-1.3,0.4-1.9,0.6c-12.6,4.3-25.8,6.5-39.3,6.5c-6.5,0-13-0.5-19.3-1.5
		c-0.8-0.1-1.6-0.3-2.4-0.4c-0.8-0.2-1.6-0.3-2.4-0.5c-2.4-0.5-4.8-1-7.3-1.7c-0.8-0.2-1.6-0.4-2.4-0.7c-1.6-0.5-3.2-0.9-4.7-1.5
		c-2-0.6-4.1-1.4-6.1-2.1v-61.5c2.8,0.8,5.6,1.4,8.4,2c0.9,0.2,1.9,0.4,2.8,0.6c3.8,0.8,7.6,1.4,11.5,1.9c0.9,0.1,1.7,0.2,2.6,0.3
		c0.8,0.1,1.5,0.2,2.3,0.3c6,0.6,12.1,0.9,18.2,0.9C313.8,413.9,327.2,412.3,340.1,409.3z"/>
	<path class="st1" d="M383.6,467.5c-13.6,6.9-28.2,12.2-43.6,15.6c-13.3,3-27.1,4.6-41.2,4.6c-8.9,0-17.7-0.6-26.3-1.8
		c-6.2-0.9-12.3-2.1-18.3-3.5c-13.8-3.4-27-8.2-39.4-14.5c12.7-3.4,25.9-6,39.4-7.8c2-0.3,4-0.5,6.1-0.8c1.6,0.4,3.2,0.7,4.7,1.1
		c0.8,0.2,1.6,0.3,2.4,0.5c2.4,0.5,4.8,0.9,7.3,1.2c0.8,0.1,1.6,0.2,2.4,0.4c0.8,0.1,1.6,0.2,2.4,0.3c6.3,0.7,12.7,1.1,19.3,1.1
		c13.6,0,26.7-1.6,39.3-4.8c0.6,0.1,1.3,0.2,1.9,0.2C355,461.1,369.6,463.8,383.6,467.5z"/>
	<path class="st2" d="M556.1,600H43.9c5.6-12.1,12.6-23.7,20.7-34.7c33.5-45.6,86.8-80.6,150.3-97.4c12.4,6.2,25.6,11.1,39.4,14.4
		c6,1.5,12.1,2.6,18.3,3.5c8.6,1.2,17.4,1.8,26.3,1.8c14.2,0,28-1.6,41.2-4.6c15.3-3.4,29.9-8.7,43.6-15.6
		c11.3,2.9,22.3,6.4,32.9,10.5c41.3,15.8,77,39.6,103.9,69.1C535.1,563.2,547.2,581,556.1,600z"/>
	<path class="st3" d="M520.4,547c-26.8-29.5-62.5-53.3-103.9-69.1c-10.6-4.1-21.6-7.6-32.9-10.5c-14.1-3.7-28.6-6.4-43.6-8.2v-50
		c1.4-0.3,2.8-0.7,4.2-1c0.1,0,0.2-0.1,0.3-0.1c1.4-0.4,2.7-0.7,4.1-1.1c0.1,0,0.2-0.1,0.3-0.1c1.2-0.3,2.3-0.7,3.4-1
		c1.8-0.5,3.5-1.1,5.3-1.7c1.1-0.4,2.2-0.8,3.3-1.2c0.2-0.1,0.4-0.2,0.7-0.3c1.3-0.5,2.6-1,3.9-1.5c1-0.4,2-0.8,3-1.2
		c0.5-0.2,1-0.4,1.5-0.7c1.1-0.5,2.2-1,3.4-1.5c0.1,0,0.1-0.1,0.1-0.1c1.2-0.6,2.5-1.2,3.7-1.8c0.1-0.1,0.2-0.1,0.3-0.2
		c1.2-0.6,2.5-1.3,3.7-1.9c0.6-0.3,1.1-0.6,1.7-0.9c1.6-0.8,3.1-1.7,4.7-2.6c0.5-0.3,1-0.6,1.6-0.9c1-0.6,2-1.2,3-1.8
		c0.2-0.2,0.5-0.3,0.7-0.4c1.2-0.7,2.3-1.5,3.5-2.2c0.1-0.1,0.2-0.2,0.3-0.2c1.1-0.7,2.1-1.4,3.2-2.2c0.4-0.3,0.8-0.6,1.2-0.8
		c0.8-0.6,1.6-1.1,2.4-1.7c0.8-0.6,1.7-1.2,2.5-1.9c0.8-0.6,1.7-1.3,2.5-1.9c0.8-0.7,1.6-1.3,2.4-2c3.3-2.7,6.5-5.5,9.5-8.4
		c0.7-0.7,1.4-1.4,2.1-2c3.4-3.3,6.7-6.8,9.8-10.4c0.6-0.7,1.2-1.3,1.7-2c4.6-5.4,8.8-11.1,12.6-17c1-1.5,1.9-3,2.8-4.5
		c0.5-0.8,0.9-1.5,1.4-2.3c0.7-1.2,1.4-2.4,2.1-3.6c0.4-0.7,0.8-1.4,1.2-2.2c2.8-5.1,5.3-10.3,7.5-15.7c0,0,0,0,0,0
		c0.3-0.7,0.6-1.4,0.8-2c0.4-1,0.8-2,1.2-3c0.7,0.1,1.5,0.2,2.2,0.2c0.8,0,1.6,0.1,2.4,0.1c6.9,0,13.4-1.9,18.9-5.2
		c6.8-4.1,12.2-10.3,15.2-17.7C519.4,352.6,548.4,480.5,520.4,547z"/>
	<path class="st0" d="M505.1,264.8c0,4.9-1,9.7-2.7,14c0,0,0,0,0,0c-3,7.4-8.4,13.6-15.2,17.7c-5.5,3.3-12,5.2-18.9,5.2
		c-0.8,0-1.6,0-2.4-0.1c-0.8-0.1-1.5-0.1-2.2-0.2c3.8-10,6.8-20.5,8.7-31.3c0.2,0.2,0.3,0.4,0.5,0.6c2,2.3,3.9,3.7,5.7,4.1
		c5.8,1.2,10.4-9.2,13.6-38c0.4,0.4,0.8,0.7,1.2,1.1v0C500.5,244.5,505.1,254.1,505.1,264.8z"/>
	<path class="st0" d="M472.3,270c-1.9,10.8-4.9,21.3-8.7,31.3c-0.4,1-0.8,2-1.2,3c-0.3,0.7-0.6,1.4-0.8,2
		c-2.2,5.4-4.8,10.6-7.5,15.7c-0.4,0.7-0.8,1.4-1.2,2.2c-0.7,1.2-1.4,2.4-2.1,3.6c-0.5,0.8-0.9,1.5-1.4,2.3c-0.9,1.5-1.9,3-2.8,4.5
		c-3.9,5.9-8.1,11.6-12.6,17c-0.6,0.7-1.1,1.4-1.7,2c-3.1,3.6-6.4,7.1-9.8,10.4c-0.7,0.7-1.4,1.4-2.1,2c-3.1,2.9-6.3,5.7-9.5,8.4
		c-0.8,0.7-1.6,1.3-2.4,2c-0.8,0.6-1.6,1.3-2.5,1.9c-0.8,0.6-1.7,1.3-2.5,1.9c-0.8,0.6-1.6,1.2-2.4,1.7c-0.4,0.3-0.8,0.6-1.2,0.8
		c-1.1,0.7-2.1,1.4-3.2,2.2c-0.1,0.1-0.2,0.2-0.3,0.2c-1.1,0.8-2.3,1.5-3.5,2.2c-0.2,0.1-0.5,0.3-0.7,0.4c-1,0.6-2,1.2-3,1.8
		c-0.5,0.3-1.1,0.6-1.6,0.9c-1.5,0.9-3.1,1.8-4.7,2.6c-0.6,0.3-1.1,0.6-1.7,0.9c-1.2,0.6-2.5,1.3-3.7,1.9c-0.1,0.1-0.2,0.1-0.3,0.2
		c-1.2,0.6-2.5,1.2-3.7,1.8c-0.1,0-0.1,0-0.1,0.1l-3.4,1.5c-0.5,0.2-1,0.4-1.5,0.7c-1,0.4-2,0.8-3,1.2c-1.3,0.5-2.6,1-3.9,1.5
		c-0.2,0.1-0.4,0.2-0.7,0.3c-1.1,0.4-2.2,0.8-3.3,1.2c-1.7,0.6-3.5,1.2-5.3,1.7c-1.1,0.4-2.3,0.7-3.4,1c-0.1,0-0.2,0.1-0.3,0.1
		c-1.3,0.4-2.7,0.8-4.1,1.1c-0.1,0-0.2,0.1-0.3,0.1c-1.4,0.4-2.8,0.7-4.2,1c-12.9,3-26.3,4.6-40.1,4.6c-6.1,0-12.2-0.3-18.2-0.9
		c-0.8-0.1-1.5-0.2-2.3-0.3c-0.9-0.1-1.8-0.2-2.6-0.3c-3.9-0.5-7.7-1.2-11.5-1.9c-1-0.2-1.9-0.4-2.8-0.6c-2.8-0.6-5.6-1.3-8.4-2
		c-1.1-0.3-2.3-0.6-3.4-1c-0.6-0.2-1.1-0.3-1.7-0.5c-0.9-0.3-1.7-0.5-2.5-0.8c-3.6-1.2-7.2-2.4-10.7-3.8c-1.3-0.5-2.6-1-3.8-1.6
		c-1.7-0.7-3.3-1.4-4.9-2.2c-1.6-0.7-3.1-1.5-4.7-2.2c-0.8-0.4-1.6-0.8-2.3-1.2c-0.8-0.4-1.5-0.8-2.3-1.2c-1.1-0.6-2.2-1.2-3.3-1.8
		c-0.6-0.4-1.3-0.7-1.9-1.1c-0.5-0.3-1-0.6-1.6-0.9c-0.7-0.4-1.5-0.9-2.2-1.3c-1.7-1.1-3.5-2.1-5.1-3.3c-0.7-0.5-1.5-1-2.2-1.5
		c-0.5-0.4-1.1-0.7-1.6-1.1c-0.6-0.4-1.2-0.9-1.9-1.3c-1.8-1.3-3.6-2.6-5.3-3.9c-7.1-5.5-13.7-11.5-19.8-17.9
		c-0.4-0.4-0.8-0.9-1.2-1.3c-3.2-3.4-6.2-7-9.1-10.6c-1-1.2-1.9-2.5-2.9-3.7c-0.5-0.6-1-1.3-1.4-1.9c-1.7-2.4-3.4-4.8-5-7.2
		c-1.2-1.9-2.5-3.8-3.6-5.8c-0.4-0.7-0.9-1.5-1.3-2.2c-0.4-0.7-0.9-1.5-1.3-2.2c-0.4-0.8-0.8-1.5-1.2-2.3c-3.7-6.8-7-13.9-9.7-21.3
		c-3.4-8.9-6.1-18.2-8-27.8c0,0,0,0,0,0c0,0,0.1,0,0.1-0.1c0.9-0.3,1.7-0.8,2.5-1.4c0,0,0,0,0.1,0c20.5-11.5,151.3-85.1,218.6-133.5
		c0,0,0,0,0.1,0c9.3-6.7,17.3-12.9,23.7-18.3c0,0,1.6,4,5.2,11.3c6.4,13.2,19.2,37.2,40.4,68.6C432.8,220.1,450.4,244,472.3,270z"/>
	<path class="st0" d="M136.2,300.7c-2.5,0.6-5.2,0.9-7.9,0.9c-20.4,0-36.9-16.5-36.9-36.9c0-13.2,6.9-24.7,17.3-31.2
		c5.4,32.8,12.7,41.7,19.6,39.4C130.1,282.5,132.8,291.8,136.2,300.7z"/>
	<rect x="254.2" y="407.9" class="st4" width="85.8" height="59.7"/>
	<path class="st5" d="M340.1,409.3v6c-12.1,2.8-25.2,4.3-38.8,4.3c-16.8,0-32.7-2.3-47.1-6.5v-5.3c2.8,0.8,5.6,1.4,8.4,2
		c0.9,0.2,1.9,0.4,2.8,0.6c3.8,0.8,7.6,1.4,11.5,1.9c0.9,0.1,1.7,0.2,2.6,0.3c0.8,0.1,1.5,0.2,2.3,0.3c6,0.6,12.1,0.9,18.2,0.9
		C313.8,413.9,327.2,412.3,340.1,409.3z"/>
	<g>
		<path class="st6" d="M269.8,488.2c6,1.5,12.1,2.6,18.3,3.5c8.6,1.2,17.4,1.8,26.3,1.8c14.2,0,28-1.6,41.2-4.6
			c15.3-3.4,29.9-8.7,43.6-15.6c8.2,2.1,16.3,4.6,24.2,7.3c-2.3-0.9-4.6-1.8-6.9-2.7c-10.6-4.1-21.6-7.6-32.9-10.5
			c-13.6,6.9-28.2,12.2-43.6,15.6c-13.3,3-27.1,4.6-41.2,4.6c-8.9,0-17.7-0.6-26.3-1.8c-6.2-0.9-12.3-2.1-18.3-3.5
			c-4.7-1.1-9.3-2.5-13.9-4C249.8,482.4,259.6,485.8,269.8,488.2z"/>
		<path class="st6" d="M228.9,474.2c-62.8,16.9-115.4,51.8-148.7,97c-6.8,9.2-12.7,18.8-17.8,28.8H43.9
			c5.6-12.1,12.6-23.7,20.7-34.7c33.5-45.6,86.8-80.6,150.3-97.4C219.4,470.2,224.1,472.3,228.9,474.2z"/>
	</g>
	<path class="st7" d="M283.1,463.4c0.4-0.1,0.8-0.1,1.1-0.1c-1.6-0.1-3.2-0.3-4.7-0.5c-0.8-0.1-1.6-0.2-2.4-0.3
		c-0.8-0.1-1.6-0.2-2.4-0.4c-2.4-0.4-4.8-0.8-7.3-1.2c-0.8-0.2-1.6-0.3-2.4-0.5c-1.6-0.3-3.2-0.7-4.7-1.1c-2,0.2-4.1,0.5-6.1,0.8
		c-13.5,1.8-26.6,4.5-39.4,7.8c4.4,2.2,8.9,4.2,13.5,6.1C246.1,469.5,264.4,465.9,283.1,463.4z"/>
	<path class="st8" d="M448.5,80.1c-0.8-0.4-1.5-0.7-2.2-0.9c0,0.7,0,1.1,0,1.1S447.1,80.1,448.5,80.1z"/>
	<path class="st8" d="M125.6,301.5c3.7,1.6,7.8,2.6,12,2.9c-0.5-1.2-1-2.4-1.4-3.6c-2.5,0.6-5.2,0.9-7.9,0.9
		C127.4,301.6,126.5,301.6,125.6,301.5z"/>
	<path class="st5" d="M266.2,410.3c-18.2-4.9-35.1-12.6-50.5-22.8c-30.6-20.1-54.4-49.6-67.6-84.4c-3.4-8.9-6.1-18.2-8-27.8
		c0,0,0,0,0,0c0,0,0.1,0,0.1-0.1c0.9-0.3,1.7-0.8,2.5-1.4c0,0,0,0,0.1,0c20.5-11.5,151.3-85.1,218.6-133.5c0,0,0,0,0.1,0
		c5.8-4.2,11.1-8.1,15.8-11.8c-2.8-5.8-4-8.9-4-8.9c-6.4,5.5-14.5,11.7-23.7,18.3c0,0,0,0-0.1,0c-67.2,48.4-198.1,122-218.6,133.5
		c0,0,0,0-0.1,0c-0.8,0.6-1.7,1.1-2.5,1.4c0,0-0.1,0-0.1,0.1c0,0,0,0,0,0c1.9,9.6,4.6,18.9,8,27.8c13.1,34.7,37,64.2,67.6,84.4
		c15.3,10.1,32.3,17.9,50.5,22.8c2.8,0.8,5.6,1.4,8.4,2c0.9,0.2,1.9,0.4,2.8,0.6c2,0.4,4,0.8,6.1,1.1
		C269.7,411.2,267.9,410.7,266.2,410.3z"/>
	<path class="st5" d="M479.7,262.2c0,4.3-0.4,8.4-1.2,12.4c-2,10.1-6.4,19.2-12.6,26.9c-0.8-0.1-1.5-0.1-2.2-0.2
		c3.8-10,6.8-20.5,8.7-31.3c-21.9-26-39.5-49.9-53.5-70.6C452.6,200.4,479.7,228.2,479.7,262.2z"/>
	<g>
		<g>
			<g>
				<circle cx="217.4" cy="233.8" r="28.3"/>
				<circle class="st9" cx="227.5" cy="224.8" r="10.1"/>
			</g>
			<g>
				<circle cx="382.4" cy="233.8" r="28.3"/>
				<circle class="st9" cx="392.4" cy="224.8" r="10.1"/>
			</g>
		</g>
		<path class="st10" d="M352.6,185.4c22.2-15.9,53.1-10.8,69.1,11.4"/>
		<path class="st9" d="M351.2,328c-8.1,15.9-27.1,27-49.3,27c-22.1,0-41.1-11.1-49.3-27c14.5,8.3,31.3,13,49.3,13
			C319.9,341,336.7,336.3,351.2,328z"/>
	</g>
	<path class="st3" d="M493.2,237.7c-0.4-0.4-0.8-0.7-1.2-1.1c-3.2,28.8-7.7,39.2-13.6,38c-1.8-0.4-3.7-1.8-5.7-4.1
		c-0.2-0.2-0.3-0.4-0.5-0.6c-21.9-26-39.5-49.9-53.5-70.6c-21.2-31.4-34-55.5-40.4-68.6c-3.6-7.3-5.2-11.3-5.2-11.3
		c-6.4,5.5-14.5,11.7-23.7,18.3c0,0,0,0-0.1,0c-67.2,48.4-198.1,122-218.6,133.5c0,0,0,0-0.1,0c-1.4,0.8-2.2,1.2-2.5,1.4
		c0,0-0.1,0-0.1,0.1c0,0,0,0,0,0c-6.9,2.3-14.2-6.5-19.6-39.4c-10.4,6.5-17.3,18.1-17.3,31.2c0,20.4,16.5,36.9,36.9,36.9
		c2.7,0,5.4-0.3,7.9-0.9c2.8,7.3,6,14.4,9.7,21.3c0.4,0.8,0.8,1.5,1.2,2.3c0.4,0.8,0.8,1.5,1.3,2.2c0.4,0.7,0.9,1.5,1.3,2.2
		c1.2,2,2.4,3.9,3.6,5.8c1.6,2.4,3.3,4.8,5,7.2c0.5,0.7,1,1.3,1.4,1.9c0.9,1.3,1.9,2.5,2.9,3.7c2.9,3.7,5.9,7.2,9.1,10.6
		c0.4,0.5,0.8,0.9,1.2,1.3c6.1,6.5,12.7,12.4,19.8,17.9c1.7,1.3,3.5,2.7,5.3,3.9c0.6,0.5,1.2,0.9,1.9,1.3c0.5,0.4,1,0.7,1.6,1.1
		c0.7,0.5,1.5,1,2.2,1.5c1.7,1.1,3.4,2.2,5.1,3.3c0.7,0.5,1.5,0.9,2.2,1.3c0.5,0.3,1,0.6,1.6,0.9c0.6,0.4,1.3,0.7,1.9,1.1
		c1.1,0.6,2.2,1.2,3.3,1.8c0.8,0.4,1.5,0.8,2.3,1.2c0.8,0.4,1.5,0.8,2.3,1.2c1.5,0.8,3.1,1.5,4.7,2.2c1.6,0.8,3.3,1.5,4.9,2.2
		c1.3,0.5,2.5,1.1,3.8,1.6c3.5,1.4,7.1,2.7,10.7,3.8c0.8,0.3,1.7,0.5,2.5,0.8c0.6,0.2,1.1,0.4,1.7,0.5c1.1,0.3,2.2,0.7,3.4,1V460
		c-13.5,1.8-26.6,4.5-39.4,7.8c-63.5,16.8-116.7,51.8-150.3,97.4c-15.4-71.1,15.2-217.5,13.9-350C77.9,161,97.2,0,301.3,0
		c134,0,133.3,77.4,133.3,77.4s58-10.3,57.2,148.2C491.7,228.2,492.3,232.3,493.2,237.7z"/>
	<path class="st8" d="M90.3,218.1C89.7,163.9,109,2.8,313.1,2.8c20.3,0,37.4,1.8,52,4.8C348.2,2.9,327.3,0,301.3,0
		C97.2,0,77.9,161,78.4,215.3c1.3,132.5-29.3,278.9-13.9,350c3-4,6.1-8,9.4-11.9C64.8,478.2,91.5,342.1,90.3,218.1z"/>
</g>
</svg>
